<svg xmlns:mydata="http://www.w3.org/2000/svg" mydata:contrastcolor="ffffff" mydata:template="Default"
  mydata:presentation="2.5" mydata:layouttype="undefined" mydata:specialfontid="undefined" mydata:id1="097"
  mydata:id2="097" mydata:companyname="Beast's Wedding Party" mydata:companytagline="It's Dangerous to Go Alone"
  version="1.1" xmlns="http://www.w3.org/2000/svg" xmlns:xlink="http://www.w3.org/1999/xlink" viewBox="0 20 550 430">
  <g fill="firebrick" fill-rule="none" stroke="none" stroke-width="1" stroke-linecap="butt" stroke-linejoin="miter"
    stroke-miterlimit="10" stroke-dasharray="" stroke-dashoffset="0" font-family="none" font-weight="none"
    font-size="none" text-anchor="none" style="mix-blend-mode: normal">
    <g
      data-paper-data="{&quot;isGlobalGroup&quot;:true,&quot;bounds&quot;:{&quot;x&quot;:145.54793246276108,&quot;y&quot;:105.99999999999999,&quot;width&quot;:258.9041350744778,&quot;height&quot;:258}}">
      <!-- <g transform="translate(0,0)"> -->
        <circle cx="275" cy="235" r="105" stroke="firebrick" stroke-width="3" fill="#00000000" />
        <circle cx="275" cy="235" r="100" stroke="firebrick" stroke-width="3" fill="#00000000" />
        <circle cx="275" cy="235" r="140" stroke="firebrick" stroke-width="3" fill="#00000000" />
        <circle cx="275" cy="235" r="145" stroke="firebrick" stroke-width="3" fill="#00000000" />
      <!-- </g> -->
      <g transform="translate(0,33)"
        data-paper-data="{&quot;isIcon&quot;:&quot;true&quot;,&quot;iconType&quot;:&quot;icon&quot;,&quot;rawIconId&quot;:&quot;4283735&quot;,&quot;selectedEffects&quot;:{&quot;container&quot;:&quot;circle_simple_outline3&quot;,&quot;transformation&quot;:&quot;&quot;,&quot;pattern&quot;:&quot;&quot;},&quot;combineTerms&quot;:&quot;hannya&quot;,&quot;isDetailed&quot;:false,&quot;fillRule&quot;:&quot;evenodd&quot;,&quot;blockLetter&quot;:&quot;O&quot;,&quot;blockLetterId&quot;:0,&quot;relativeBoundsIconToContainer&quot;:{&quot;top&quot;:0.035562357395447095,&quot;left&quot;:-0.000022749566289106494},&quot;widthRatioIconToContainer&quot;:0.5761421661523727,&quot;heightRatioIconToContainer&quot;:0.7489874676953261,&quot;bounds&quot;:{&quot;x&quot;:180.87702367066095,&quot;y&quot;:142.05344560409895,&quot;width&quot;:188.25447343221617,&quot;height&quot;:188.25417222502858},&quot;iconStyle&quot;:&quot;standalone&quot;,&quot;suitableAsStandaloneIcon&quot;:true}"
        fill-rule="evenodd">
        <path
          d="M254.52383,140.57098c2.41952,-0.62063 5.39843,-0.7444 5.39843,-0.7444c-0.62063,-1.36503 -3.35068,-3.9713 -4.96456,-5.08834c-1.67556,-1.17914 -1.30248,-4.03297 -1.30248,-4.03297c2.91594,2.10942 4.90159,0.12421 5.14957,-0.24885c0.24843,-0.37176 1.36503,-3.47445 -1.4888,-4.96326c-2.9168,-1.48923 -6.01906,-0.49684 -7.50873,1.73679c-1.48837,2.23364 -1.36503,6.32915 0,8.74911c1.36503,2.35785 4.71657,4.59192 4.71657,4.59192zM295.04159,134.73867c-1.61345,1.1166 -4.34393,3.72288 -4.96412,5.08834c0,0 2.97804,0.12378 5.33546,0.7444c0,0 3.35154,-2.23407 4.71657,-4.59149c1.36546,-2.41996 1.49011,-6.51547 0,-8.74911c-1.48967,-2.23364 -4.59149,-3.22603 -7.44619,-1.73679c-2.91506,1.4888 -1.73766,4.59149 -1.4888,4.96326c0.24843,0.37264 2.23364,2.35829 5.08703,0.24885c0,0 0.37264,2.85357 -1.23994,4.03253zM274.93711,144.17008c2.8547,-3.47489 8.37734,-3.84708 8.37734,-3.84708c-1.11703,-13.21638 -8.37734,-14.95361 -8.37734,-14.95361c0,0 -7.1969,1.73722 -8.3148,14.95361c0,0 5.4614,0.37176 8.3148,3.84708zM281.08125,142.06022c0.49554,-0.12378 1.05319,-0.24799 1.61214,-0.3722c0.4343,-0.06167 0.80651,-0.12421 1.24168,-0.18675v4.03341h1.36546v-4.15762c0.99195,-0.06167 2.04732,-0.12378 3.10269,-0.06167v4.3435h1.36546v-4.28182c1.11617,0.12421 2.35698,0.24885 3.6599,0.43474v3.47489h1.36503v-3.22689c1.61302,0.24843 3.3498,0.55852 5.33589,0.99326c8.74911,1.86101 12.09978,-3.47489 12.09978,-3.47489c-1.98565,0.12421 -3.47489,-1.86101 -3.22689,-4.46771c0.24885,-2.66795 2.23364,-3.78454 4.09508,-3.66034c1.86187,0.12378 4.28182,1.36503 4.40604,4.6536c0.12335,3.22603 -0.86862,6.2045 -5.15088,8.93455c-4.21929,2.79259 -15.44959,6.39126 -25.68706,6.39126c-10.23791,0 -11.10696,-2.73049 -11.10696,-5.02623c0,-1.67512 1.55004,-3.04015 4.15718,-3.97087v3.5991h1.36546zM263.27337,151.42951c-10.23921,0 -21.40697,-3.59867 -25.6888,-6.39126c-4.22016,-2.73005 -5.21211,-5.70853 -5.08834,-8.93412c0.12378,-3.28857 2.4812,-4.52982 4.34307,-4.6536c1.86144,-0.12421 3.84708,0.99239 4.09595,3.66034c0.24712,2.60628 -1.24212,4.59192 -3.22646,4.46771c0,0 3.35024,5.33633 12.09848,3.47489c1.98609,-0.43474 3.78585,-0.74484 5.398,-0.99326v3.22689h1.3659v-3.47489c1.30292,-0.18589 2.48206,-0.31053 3.59867,-0.43474v4.28182h1.36503v-4.3435c1.11313,-0.06189 2.10292,-0.00044 3.0927,0.06102l0.01043,0.00065v4.15762h1.36459v-4.03341c0.43518,0.0621 0.86904,0.12465 1.24125,0.18632c0.62106,0.12421 1.11703,0.24843 1.67468,0.3722v3.9713h1.36503v-3.5991c2.4825,0.93072 4.03384,2.29575 4.03384,3.97087c0,2.29575 -0.86818,5.02623 -11.04398,5.02623zM229.02135,149.69228c-1.17871,-3.41278 -0.68229,-7.01188 -0.68229,-7.01188c3.78498,5.0258 7.88006,8.12848 7.88006,8.12848l2.60541,0.37176l-1.23994,-3.72244c-9.99035,-8.37604 -12.22399,-15.6359 -12.22399,-15.6359c-0.86862,12.84418 0,18.36639 0,18.36639c1.36503,-0.7444 3.66077,-0.49641 3.66077,-0.49641zM312.35261,147.45865l-1.24038,3.72244l2.60584,-0.37176c0,0 4.15718,-3.10269 7.88093,-8.12848c0,0 0.49641,3.5991 -0.62149,7.01188c0,0 2.23364,-0.24843 3.5991,0.49598c0,0 0.86862,-5.5222 0,-18.36639c0,0 -2.23407,7.25987 -12.22399,15.63634zM212.39219,168.98939c-0.49641,1.61345 -1.1166,2.97804 -1.24038,7.2603c-0.12465,4.21886 3.10225,8.31437 6.63881,8.06594c3.47445,-0.24843 4.96412,-4.71657 5.58431,-8.81121c0.61967,-4.15371 -1.23816,-8.49286 -1.98335,-10.23356l-0.00187,-0.00435c-0.0744,-0.17372 -0.15874,-0.36091 -0.24999,-0.56373c-0.82192,-1.82583 -2.20723,-4.90302 -1.98366,-10.54366c0.24799,-6.2045 3.5991,-10.4859 3.5991,-10.4859c-2.85426,-0.12421 -9.86571,2.10942 -11.47916,8.12848c-1.61345,5.95652 0,9.24508 0.86862,10.98274c0.86818,1.7381 0.7444,4.59149 0.24755,6.20494zM328.54834,165.26652c-0.74571,1.73766 -2.60714,6.08073 -1.98609,10.23791c0.62149,4.09464 2.10942,8.56279 5.64685,8.81121c3.47445,0.24843 6.70135,-3.84708 6.57713,-8.06594c-0.12378,-4.28226 -0.74397,-5.64685 -1.24038,-7.2603c-0.49598,-1.61345 -0.62106,-4.46641 0.24712,-6.2045c0.86948,-1.73766 2.48293,-5.02623 0.86948,-10.98274c-1.61302,-6.01906 -8.56322,-8.25269 -11.47829,-8.12848c0,0 3.41148,4.2814 3.6599,10.4859c0.22931,5.80168 -1.24212,8.89156 -2.10204,10.69654c-0.06862,0.14506 -0.13376,0.28143 -0.1937,0.41042zM223.62292,162.66067c2.1103,3.84708 7.25987,6.82513 13.71279,4.83947c6.51503,-1.98522 7.50829,-9.49351 7.50829,-9.49351c3.35068,0.74484 6.08159,1.24125 8.81165,1.48923c2.79215,0.24799 5.52264,1.42713 8.12805,5.15001c2.60541,3.72288 1.24038,8.87288 1.24038,8.87288c3.10269,-2.54374 3.72331,-6.63881 3.97173,-11.23073c0.24843,-4.65403 -1.4888,-9.36973 -1.4888,-9.36973c-2.35829,0.0621 -4.71657,0 -6.94977,-0.18589v3.289h-1.48967v-3.47489c-2.10942,-0.24799 -4.15632,-0.55895 -6.01862,-0.93072v3.78542h-1.48837v-4.09551c-5.89441,-1.30336 -9.98992,-2.85426 -9.98992,-2.85426c1.36503,2.85426 1.61214,6.57757 0.12291,10.17624c-1.48837,3.66077 -6.08029,4.40561 -9.18298,3.16435c-3.16435,-1.24125 -3.04058,-3.90963 -3.04058,-3.90963c4.03297,0.99326 4.90201,-1.86144 4.2814,-4.21929c-0.62019,-2.35785 -4.52982,-3.47445 -7.13566,-1.24038c-2.60541,2.23364 -3.10225,6.32872 -0.99283,10.23791zM318.24746,153.66315c-0.62063,2.35785 0.24885,5.21255 4.22016,4.21929c0,0 0.12421,2.66795 -2.97848,3.90963c-3.10312,1.24082 -7.75671,0.49598 -9.24508,-3.16435c-1.48923,-3.5991 -1.24125,-7.32197 0.12421,-10.17624c0,0 -4.03384,1.55134 -9.99079,2.85426v4.09551h-1.48837v-3.78542c-1.86187,0.3722 -3.84752,0.68273 -5.95694,0.93072v3.47489h-1.48967v-3.289c-2.29575,0.18589 -4.65403,0.24843 -7.01231,0.18589c0,0 -1.73679,4.7157 -1.48837,9.36973c0.24843,4.59192 0.86904,8.687 3.97173,11.23073c0,0 -1.36503,-5.15001 1.23994,-8.87288c2.66838,-3.72288 5.39843,-4.90201 8.12805,-5.15001c2.73049,-0.24799 5.46054,-0.7444 8.87375,-1.48923c0,0 0.99369,7.50786 7.44619,9.49351c6.51417,1.98565 11.60293,-0.99239 13.71279,-4.83947c2.10986,-3.90919 1.61345,-8.00427 -0.99195,-10.23791c-2.6067,-2.23407 -6.45423,-1.11747 -7.07485,1.24038zM263.6447,198.15307c5.21211,0.4343 8.00384,-1.36503 11.2924,-5.46054c3.35154,4.09551 6.1437,5.89484 11.35494,5.46054c5.15088,-0.37264 8.50155,-4.09551 8.50155,-10.17667c0,-6.14283 -4.59149,-9.24552 -7.75628,-11.85136c-2.97848,-2.48206 -5.70853,-6.76346 -5.70853,-13.09217c0,-6.39082 1.36503,-10.23834 1.36503,-10.23834c-6.88723,-0.12421 -7.75628,-3.35024 -7.75628,-3.35024c0,0 -0.86862,3.22603 -7.69331,3.35024c0,0 1.42713,3.84752 1.42713,10.23834c0,6.32872 -2.79215,10.61011 -5.7702,13.09217c-3.10312,2.60584 -7.69504,5.70853 -7.69504,11.85136c-0.00087,6.08116 3.35068,9.80404 8.43858,10.17667zM274.93711,154.22167c2.73049,0 4.90245,2.23364 4.90245,4.90159c0,2.73005 -2.1724,4.96412 -4.90245,4.96412c-2.73005,0 -4.83905,-2.23364 -4.83905,-4.96412c0,-2.66795 2.10942,-4.90159 4.83905,-4.90159zM261.65905,170.85083c0,-5.21211 -4.21929,-9.49351 -9.49307,-9.49351c-5.21255,0 -9.49351,4.28096 -9.49351,9.49351c0,5.27422 4.28053,9.49394 9.49351,9.49394c5.27379,0.00044 9.49307,-4.21972 9.49307,-9.49394zM307.26471,170.85083c0,-5.21211 -4.21886,-9.49351 -9.49351,-9.49351c-5.21168,0 -9.49263,4.28096 -9.49263,9.49351c0,5.27422 4.28096,9.49394 9.49263,9.49394c5.27422,0.00044 9.49351,-4.21972 9.49351,-9.49394zM292.37365,170.85083c0,-2.97848 2.41996,-5.39843 5.39756,-5.39843c2.97891,0 5.46054,2.41996 5.46054,5.39843c0,3.04015 -2.48163,5.4601 -5.46054,5.4601c-2.97804,0.00044 -5.39756,-2.41996 -5.39756,-5.4601zM252.16598,176.31137c-2.97891,0 -5.39843,-2.42039 -5.39843,-5.4601c0,-2.97848 2.41952,-5.39843 5.39843,-5.39843c3.03928,0 5.45966,2.41996 5.45966,5.39843c0.00044,3.03971 -2.42039,5.4601 -5.45966,5.4601zM329.04388,185.55558c-1.86057,1.18045 -3.22603,1.42757 -3.22603,1.42757c-4.59149,-1.30248 -7.81751,-8.37604 -7.81751,-8.37647c-0.24885,6.45293 5.21081,9.61728 5.21081,9.61728c-8.74867,0.49598 -9.36886,-9.86571 -9.36886,-9.86571c-2.10986,5.4601 2.79259,10.11413 2.79259,10.11413c-2.8547,0.06298 -4.52026,-1.03235 -6.19061,-2.13028c-1.63386,-1.07404 -3.2725,-2.15156 -6.03338,-2.15156c-5.64642,0 -8.12935,4.65403 -8.12935,4.65403c0.24929,-4.03297 -1.36503,-6.51547 -1.36503,-6.51547c14.8307,0.86948 15.9473,-13.71193 15.9473,-13.71193c10.36255,3.10182 15.69801,-3.10312 15.69801,-3.10312c-0.06515,0.14115 -0.13507,0.28664 -0.20803,0.43778c-0.76091,1.57914 -1.85796,3.85578 -1.40498,9.80013c0.49641,6.45336 4.09508,9.8036 4.09508,9.8036zM223.37494,165.51451c0,0 5.39843,6.20494 15.69888,3.10312c0,0 1.11617,14.58141 16.00941,13.71236c0,0 -1.67686,2.4825 -1.42757,6.51547c0,0 -2.48293,-4.65403 -8.06681,-4.65403c-2.80727,0 -4.46437,1.08924 -6.10748,2.16936c-1.66157,1.09228 -3.30881,2.17501 -6.11651,2.11247c0,0 4.84035,-4.65403 2.73049,-10.11413c0,0 -0.62063,10.36169 -9.36973,9.86571c0,0 5.52264,-3.16435 5.27422,-9.61728c0,0 -3.22646,7.07355 -7.88049,8.37604c0,0 -1.36459,-0.24712 -3.22646,-1.42757c0,0 3.5991,-3.35024 4.09508,-9.8036c0.45342,-5.94522 -0.64403,-8.22186 -1.40515,-9.80056c-0.07292,-0.15157 -0.14276,-0.2962 -0.20786,-0.43735zM267.67811,184.81162c3.03971,0 5.39756,2.10942 5.39756,4.65446c0,2.5433 -2.35785,4.59149 -5.39756,4.59149c-2.97891,0 -5.39843,-2.04819 -5.39843,-4.59149c0,-2.5446 2.41952,-4.65446 5.39843,-4.65446zM282.25865,184.81162c2.97848,0 5.46097,2.10942 5.46097,4.65446c0,2.5433 -2.48206,4.59149 -5.46097,4.59149c-3.03928,0 -5.4601,-2.04819 -5.4601,-4.59149c0,-2.5446 2.42083,-4.65446 5.4601,-4.65446zM217.29421,191.69972c2.85383,0.49641 4.21929,-4.71657 0.49641,-5.89441c-3.78542,-1.11747 -6.01906,1.30248 -6.39082,2.5433c-0.37264,1.24125 -1.48923,4.96369 2.35785,9.80447c3.90919,4.90159 9.61728,4.65316 9.61728,4.65316c-0.24799,-4.65316 1.73722,-7.38321 1.73722,-7.38321c-7.81795,0.12378 -7.81795,-3.72331 -7.81795,-3.72331zM336.17998,198.15307c3.84665,-4.84035 2.73049,-8.56279 2.35829,-9.80447c-0.37264,-1.24038 -2.6067,-3.66077 -6.32958,-2.5433c-3.78498,1.17828 -2.35698,6.39126 0.49641,5.89441c0,0 0,3.84665 -7.87962,3.72331c0,0 1.98522,2.73005 1.73679,7.38321c0,0 5.7702,0.24843 9.61772,-4.65316zM304.65974,236.74686c2.85426,-7.44532 12.84375,-20.66214 14.70518,-22.52401c1.86144,-1.92311 4.7157,-4.77737 5.46054,-8.93542c0.74397,-4.21972 -0.37264,-9.74106 -5.21298,-12.59532c-4.90159,-2.85426 -10.23747,-1.48923 -14.08499,1.4888c-3.90789,2.97848 -10.61054,5.89484 -18.86193,6.01819c-8.19189,0.12421 -11.72845,-5.27335 -11.72845,-5.27335c0,0 -3.41234,5.398 -11.66417,5.27335c-8.19059,-0.12335 -14.95448,-3.03971 -18.80157,-6.01819c-3.90919,-2.97804 -9.24552,-4.34307 -14.08543,-1.4888c-4.90159,2.85383 -6.01862,8.37516 -5.27422,12.59532c0.74484,4.15762 3.66121,7.01188 5.5222,8.93542c1.86187,1.86187 11.85092,15.07825 14.70562,22.52401c3.35154,8.87375 11.35494,6.01906 11.35494,6.01906c0,0 9.61728,-1.73766 18.24218,-1.73766c8.74911,0 18.36683,1.73766 18.36683,1.73766c0,0 7.94303,2.8547 11.35625,-6.01906zM291.31872,238.48322c-4.2814,-0.74354 -16.38117,-1.48793 -16.38117,-1.48793c0,0 -12.03681,0.74397 -16.25609,1.48793c-4.28182,0.80781 -7.25943,-1.11573 -8.50112,-4.59062c-1.24125,-3.47445 -9.99035,-20.41371 -14.33342,-25.7496c-4.3435,-5.33676 -2.85426,-8.3148 -1.73722,-9.61815c1.1166,-1.24125 4.83905,-1.73679 7.75628,0.3722c2.85296,2.1711 10.29958,5.89441 16.56575,5.89441c6.20581,0 11.97557,-0.49598 16.50495,-4.59149c4.65446,4.09551 10.36255,4.59149 16.6296,4.59149c6.20407,0 13.71366,-3.72331 16.56619,-5.89441c2.8547,-2.10899 6.57757,-1.61302 7.69504,-0.3722c1.17828,1.30336 2.66838,4.2814 -1.7381,9.61815c-4.34219,5.33589 -13.0913,22.27515 -14.33212,25.7496c-1.24082,3.47489 -4.21929,5.39843 -8.43858,4.59062zM224.24354,225.01972c5.39843,0.43474 9.74193,-1.05493 11.23117,-1.61388c-0.62106,-0.99239 -1.30336,-1.98478 -1.98565,-2.91506c-4.7157,1.42627 -9.12131,1.48837 -13.09217,-0.18675c-4.09551,-1.73722 -5.27422,-4.96412 -5.27422,-4.96412c6.5146,6.39082 14.82983,4.03297 16.87716,3.28857c-0.68273,-0.80651 -1.36503,-1.61388 -1.98565,-2.35785c-10.36255,2.29618 -12.47155,-2.04776 -12.47155,-2.04776c4.83947,2.23364 9.67939,1.11703 11.16906,0.62019c-0.62063,-0.68273 -1.24125,-1.30292 -1.73766,-1.86187c-8.37647,2.60714 -11.97513,-3.16393 -11.97513,-3.16393c2.29575,-0.24755 3.16435,-3.289 1.55091,-5.27335c-1.67512,-1.98609 -4.77781,-1.7381 -6.39082,-0.12465c-1.61258,1.61345 -2.60584,6.26618 -0.3722,10.79599c2.23321,4.46815 7.88006,9.30806 14.45676,9.80447zM333.45036,204.54433c-1.61388,1.98478 -0.74527,5.0258 1.48923,5.27335c0,0 -3.5991,5.77107 -11.9139,3.16393c-0.49641,0.55895 -1.11747,1.17914 -1.79933,1.86187c1.55047,0.49641 6.39126,1.61345 11.23073,-0.62019c0,0 -2.1711,4.34393 -12.53409,2.04776c-0.61975,0.74397 -1.30248,1.55134 -1.98478,2.35785c2.04732,0.7444 10.36125,3.10225 16.87716,-3.28857c0,0 -1.11791,3.22689 -5.21255,4.96412c-3.97043,1.67512 -8.43858,1.61302 -13.09174,0.18675c-0.7444,0.93072 -1.428,1.92267 -1.98609,2.91506c1.42669,0.55895 5.83317,2.04862 11.16906,1.61388c6.63881,-0.49598 12.22399,-5.33633 14.45676,-9.80404c2.23364,-4.52982 1.24168,-9.18254 -0.37133,-10.79599c-1.61388,-1.61388 -4.717,-1.86231 -6.32915,0.12421zM302.36313,224.02689c-2.23364,-9.80404 1.17958,-20.22913 1.17958,-20.22913c-6.8881,1.48967 -8.74911,2.6067 -8.74911,2.6067c1.98478,12.65873 7.56953,17.62242 7.56953,17.62242zM246.45703,203.7982c0,0 3.35024,10.42509 1.11703,20.22913c0,0 5.58475,-4.96369 7.6312,-17.62242c0,-0.00044 -1.92311,-1.11703 -8.74824,-2.6067zM262.52723,205.78471h7.13653v7.5691h-7.13653zM278.72296,213.35381v-7.5691h-7.44662v7.5691zM280.3351,205.78471h7.07442v7.5691h-7.07442zM251.91756,233.51996c4.65403,0.24843 8.37647,2.73049 8.37647,2.73049c2.97934,-16.44284 -3.97087,-23.82649 -3.97087,-23.82649c0.12421,12.84375 -4.40561,21.096 -4.40561,21.096zM289.64273,236.25045c0,0 3.78542,-2.48206 8.37734,-2.73049c0,0 -4.46815,-8.25225 -4.34437,-21.096l-0.00044,0.00044c-0.06732,0.07209 -6.99494,7.46312 -4.03253,23.82605zM283.43866,215.96139c-4.21929,0.61932 -8.50155,0.49554 -8.50155,0.49554c0,0 -4.15762,0.12378 -8.4377,-0.49554c-4.21972,-0.62149 -4.84078,0.86862 -4.84078,1.98435c0,1.11747 0.86818,2.97934 3.59823,2.48293c2.79303,-0.49684 7.69548,-0.74527 9.68026,-0.74527c1.98609,0 7.01231,0.24843 9.74236,0.74527c2.73005,0.49641 3.5991,-1.36503 3.5991,-2.48293c0,-1.11573 -0.62106,-2.60584 -4.83991,-1.98435zM335.80821,224.39865c-5.08834,0.37176 -8.00557,3.04102 -8.99796,6.1437c-0.99239,3.10225 0,7.69418 0.99239,9.36886c0.99326,1.61345 1.24125,6.08159 0,12.84462c0,0 2.79259,-4.53025 3.289,-8.50155c0.49641,-3.97173 -0.12465,-5.89398 -0.74397,-7.259c-0.62106,-1.36546 -1.55134,-5.46054 1.86101,-6.45336c3.35068,-0.99283 5.4614,0.49641 5.70896,2.35741c0.24799,1.86144 -1.11703,2.73049 -2.10899,2.85383c0,0 1.24082,2.48293 4.34219,1.98565c3.16393,-0.49598 4.77824,-3.35068 4.28226,-7.19732c-0.49684,-3.84708 -3.53743,-6.5146 -8.62489,-6.14283zM209.78635,237.73968c3.10269,0.49684 4.3435,-1.98565 4.3435,-1.98565c-0.99283,-0.12378 -2.35829,-0.99239 -2.10986,-2.85383c0.24843,-1.86101 2.35741,-3.35024 5.77063,-2.35741c3.35068,0.99283 2.48206,5.0879 1.86101,6.45336c-0.61975,1.36503 -1.24082,3.28726 -0.74397,7.259c0.49598,3.9713 3.22603,8.50155 3.22603,8.50155c-1.24082,-6.76302 -0.99239,-11.23161 0,-12.84462c0.99326,-1.67468 1.98565,-6.26661 0.99326,-9.36886c-0.99326,-3.10225 -3.84708,-5.77193 -8.99709,-6.1437c-5.08834,-0.37176 -8.06724,2.29575 -8.56279,6.1437c-0.49598,3.84535 1.11703,6.70004 4.21929,7.19646zM271.27634,224.64751v7.69374l0.03301,-0.0013c1.3546,-0.06124 2.7053,-0.12247 3.62777,-0.06037c0.88121,-0.05907 2.15242,-0.00652 3.54915,0.05168c0.07861,0.00347 0.15765,0.00652 0.2367,0.00999v-7.69374c-2.1724,-0.0621 -3.78585,-0.12378 -3.78585,-0.12378c0,0 -1.61214,0.06167 -3.66077,0.12378zM262.40346,232.77599c0,0 3.66121,-0.24885 7.2603,-0.37307v-7.69331c-2.66838,0.0608 -5.58475,0.24843 -7.2603,0.43387zM280.3351,232.40293c3.53743,0.12421 7.1982,0.37307 7.1982,0.37307v-7.6325c-1.67512,-0.18545 -4.59149,-0.37307 -7.1982,-0.43387zM242.48572,235.50604c0,0 -1.30292,-2.97891 -2.41952,-4.09551c0,0 -1.24125,4.21929 -8.43858,2.85383c0,0 2.4825,-1.36503 1.36503,-3.59867c-1.1166,-2.23451 -4.21929,-2.73049 -6.51503,-0.86904c-2.23364,1.86187 -2.23364,7.5704 0.24843,9.98992c2.54374,2.35741 6.14283,3.97217 9.86571,4.09595c3.72288,0.12335 6.14327,-0.49641 9.12087,-2.35829c0,0 -1.11617,-1.98522 -2.10856,-4.28096c0,0 -5.89441,3.90919 -12.7204,-0.12465c-0.00008,0.00044 7.56931,2.41996 11.60207,-1.61258zM306.39567,237.24327c-0.99283,2.29575 -2.10856,4.28096 -2.10856,4.28096c2.97717,1.86187 5.33502,2.48163 9.05877,2.35829c3.78585,-0.12378 7.38408,-1.7381 9.86527,-4.09595c2.4825,-2.41952 2.4825,-8.12805 0.24929,-9.98992c-2.23407,-1.86144 -5.33676,-1.36546 -6.45423,0.86904c-1.17828,2.23364 1.36546,3.59867 1.36546,3.59867c-7.25943,1.36546 -8.50155,-2.85383 -8.50155,-2.85383c-1.11617,1.1166 -2.35698,4.09551 -2.35698,4.09551c3.97043,4.03297 11.60207,1.61214 11.60207,1.61214c-6.88593,4.03471 -12.71954,0.12508 -12.71954,0.12508zM254.64718,251.82425c-2.10942,-0.86774 -4.46684,0.43474 -4.59062,2.42083c-0.12421,1.98565 0.74354,3.35068 2.60541,3.5991c0,0 -0.12465,2.23364 -3.22689,1.98522c-3.10182,-0.24843 -5.95694,-5.58431 -1.73679,-17.55988c0,0 -2.97934,3.97043 -4.09508,10.48633c-1.11791,6.45293 1.36459,10.17624 3.97043,11.41705c2.60628,1.30248 6.57757,0.24799 8.50112,-3.84752c1.86144,-4.09464 0.74484,-7.56953 -1.42757,-8.50112zM302.23849,242.2695c4.28226,11.97513 1.42713,17.31146 -1.73722,17.55988c-3.10182,0.24843 -3.22689,-1.98522 -3.22689,-1.98522c1.86187,-0.24843 2.73049,-1.61302 2.6067,-3.5991c-0.12335,-1.98609 -2.48163,-3.28857 -4.59149,-2.42083c-2.10942,0.93158 -3.22689,4.40647 -1.36503,8.50155c1.86187,4.09551 5.83361,5.15001 8.43858,3.84752c2.66795,-1.24082 5.15044,-4.96456 4.03297,-11.41705c-1.11573,-6.5159 -4.15762,-10.48677 -4.15762,-10.48677zM326.06585,252.63075c-1.48923,-5.89441 -3.59823,-7.01014 -5.21211,-7.01014c-1.61302,0 -2.35698,0.61975 -2.10942,2.48032c0.24843,1.86187 2.35829,2.48293 2.35829,2.48293c-2.35829,0.62019 -3.5991,-0.24885 -4.09595,-1.98565c-0.49598,-1.73766 -0.24799,-3.5991 1.11703,-4.59236c1.36546,-0.99239 4.59192,-1.36503 6.57713,1.61475c1.98651,2.9776 1.36503,7.01014 1.36503,7.01014zM232.99265,248.59865c-0.49598,1.73636 -1.73766,2.60541 -4.09508,1.98565c0,0 2.10942,-0.62106 2.35785,-2.4825c0.24843,-1.86101 -0.49598,-2.48076 -2.10942,-2.48076c-1.67512,0 -3.78498,1.11573 -5.27422,7.01014c0,0 -0.62063,-4.03253 1.36503,-7.01014c1.98522,-2.97978 5.27422,-2.60758 6.63924,-1.61475c1.36503,0.99326 1.61302,2.8547 1.1166,4.59236zM243.47855,244.62735c-1.61214,8.62446 -5.15044,14.45676 -7.63164,15.94643c-2.4825,1.48923 -6.70135,0.86862 -6.2045,-1.11747c0.49598,-1.98435 3.10182,-1.98435 3.10182,-1.98435c-3.35024,-2.35829 -6.63881,0.49554 -6.63881,3.10182c0,2.60541 1.4888,4.21886 4.52938,4.52982c2.97848,0.24843 7.32154,-1.55221 10.1758,-7.88093c2.91637,-6.39126 2.66795,-12.59532 2.66795,-12.59532zM317.25464,257.47197c0,0 2.60714,0 3.10312,1.98435c0.49598,1.98609 -3.72288,2.6067 -6.26748,1.11747c-2.48076,-1.48923 -5.95694,-7.32197 -7.5691,-15.94643c0,0 -0.24843,6.20407 2.60497,12.59532c2.8547,6.32828 7.25987,8.12892 10.23921,7.88093c2.9776,-0.31096 4.46727,-1.92441 4.46727,-4.52982c-0.00044,-2.6067 -3.22689,-5.4601 -6.57801,-3.10182zM337.42123,246.61256c-3.84752,-0.37264 -6.2045,2.85426 -6.2045,2.85426c3.84622,-1.98565 7.07268,-0.24755 7.56953,0.99283c0.49641,1.24038 1.11747,4.03297 -1.24038,5.15088c-2.35829,1.1153 -3.97173,-1.24168 -3.97173,-1.24168c-0.12291,5.46054 3.59997,5.46054 5.58388,5.33589c1.98651,-0.12378 4.90332,-2.48206 4.77868,-6.32828c-0.12508,-3.90963 -2.66838,-6.39126 -6.51547,-6.76389zM216.42559,254.36885c0,0 -1.67556,2.35698 -4.03341,1.24168c-2.35741,-1.11791 -1.73722,-3.9105 -1.24038,-5.15088c0.49598,-1.24082 3.72244,-2.97848 7.63164,-0.99283c0,0 -2.35785,-3.22646 -6.26748,-2.85426c-3.84665,0.37264 -6.32915,2.85426 -6.45336,6.76389c-0.12421,3.84622 2.73049,6.2045 4.71614,6.32828c1.98609,0.12465 5.77063,0.12465 5.64685,-5.33589zM221.63771,272.7969c-3.35068,-1.73679 -2.10986,-8.49981 -1.24082,-10.98274c0.86818,-2.48206 6.70092,-8.43814 14.70518,-7.07268c0,0 -5.70853,-2.11073 -11.10696,0.12378c-5.33589,2.23321 -9.12131,7.44619 -9.74106,12.3469c-0.62063,4.84078 0.86862,9.55561 4.15675,10.54887c3.22646,1.05537 7.81839,-0.12378 7.9426,-6.2045c0.00034,0 -1.36554,2.9776 -4.7157,1.24038zM325.9412,254.86526c-5.33546,-2.23451 -11.10565,-0.12378 -11.10565,-0.12378c8.00384,-1.36503 13.83614,4.59062 14.76729,7.07268c0.86904,2.4825 2.1103,9.24552 -1.30336,10.98274c-3.35024,1.73722 -4.7157,-1.24082 -4.7157,-1.24082c0.12421,6.08073 4.7157,7.25987 8.0047,6.2045c3.22689,-0.99283 4.71614,-5.70809 4.09508,-10.54887c-0.62106,-4.90028 -4.34307,-10.11326 -9.74236,-12.34647z"
          data-paper-data="{&quot;isPathIcon&quot;:true}"></path>
      </g>
      <g data-paper-data="{&quot;isPrimaryText&quot;:true}" fill-rule="nonzero">
        <path
          d="M160.38826,224.4187c0.11065,-0.76683 0.49635,-2.3228 0.72417,-3.90156c0.55327,-3.83413 -0.64282,-5.7565 -3.64246,-6.18935c-2.12005,-0.30593 -3.16865,0.57881 -3.77942,1.77998c-0.43366,-0.98351 -1.48278,-2.00979 -3.17431,-2.25388c-2.81921,-0.40682 -4.04265,1.05129 -4.55686,4.61478c-0.21155,1.46599 -0.30404,3.06428 -0.41144,3.80855zM154.43328,219.57635c0.22782,-1.57876 1.03136,-2.36072 2.40713,-2.16219c1.75919,0.25385 2.1961,1.21481 1.94225,2.974c-0.03255,0.22554 -0.09415,0.49293 -0.1267,0.71846l-4.30775,-0.62162c0.00999,-0.22879 0.03626,-0.57035 0.08507,-0.90866zM148.25357,218.68461c0.22782,-1.57876 0.98882,-1.90639 2.3711,-1.75297c1.1793,0.12413 2.23213,0.80559 1.97828,2.56478c-0.03255,0.22554 -0.09415,0.49293 -0.1267,0.71846l-4.30775,-0.62162c0.00999,-0.22879 0.03626,-0.57035 0.08507,-0.90866z"
          data-paper-data="{&quot;glyphName&quot;:&quot;B&quot;,&quot;glyphIndex&quot;:0,&quot;firstGlyphOfWord&quot;:true,&quot;word&quot;:1}">
        </path>
        <path
          d="M165.82084,199.32662l-2.46778,-0.7352l-1.40535,4.71716l-3.79994,-1.13208l1.06702,-3.58155l-2.3149,-0.68966l-1.06702,3.58155l-3.31949,-0.98895l1.40535,-4.71716l-2.46778,-0.7352l-2.31622,7.77459l14.36988,4.2811z"
          data-paper-data="{&quot;glyphName&quot;:&quot;E&quot;,&quot;glyphIndex&quot;:1,&quot;word&quot;:1}"></path>
        <path
          d="M168.21579,192.85088l1.35326,-2.88898l-2.06247,-1.72101l1.77857,-3.79695l2.64244,0.48287l1.42092,-3.03343l-15.31811,-2.64591l-1.62391,3.46678zM159.80049,182.29101c1.59079,0.41803 4.70654,1.07229 7.30065,1.65834l-1.37259,2.93025c-2.10114,-1.63846 -4.59826,-3.6134 -5.92806,-4.58859z"
          data-paper-data="{&quot;glyphName&quot;:&quot;A&quot;,&quot;glyphIndex&quot;:2,&quot;word&quot;:1}"></path>
        <path
          d="M166.78338,163.41482c-1.68291,2.52052 -1.28643,4.92242 0.93087,6.40288c3.67655,2.45477 6.87146,-2.20719 8.97505,-0.80266c0.98547,0.65798 0.78867,1.89657 0.18131,2.80623c-0.68329,1.02337 -2.00462,1.64813 -2.39035,1.93858l1.50917,1.88444c0.42999,-0.3157 1.95354,-0.91504 3.21889,-2.81017c1.83475,-2.74794 1.36871,-5.08669 -0.98125,-6.65571c-3.50599,-2.34089 -6.68194,2.33373 -8.97505,0.80266c-0.53064,-0.3543 -1.07976,-1.37853 -0.3079,-2.53456c0.68329,-1.02337 2.00462,-1.64813 2.39035,-1.93858l-1.50917,-1.88444c-0.42999,0.3157 -1.77657,0.8962 -3.04191,2.79133z"
          data-paper-data="{&quot;glyphName&quot;:&quot;S&quot;,&quot;glyphIndex&quot;:3,&quot;word&quot;:1}"></path>
        <path
          d="M181.20608,145.87789l-6.25156,6.97367l1.91734,1.7188l2.06864,-2.30759l9.24732,8.28978l2.11427,-2.35849l-9.24732,-8.28978l2.05343,-2.29062z"
          data-paper-data="{&quot;glyphName&quot;:&quot;T&quot;,&quot;glyphIndex&quot;:4,&quot;word&quot;:1}"></path>
        <path d="M188.92892,137.03174l-1.8939,1.6766l3.89415,3.91757l1.41616,-1.25367z"
          data-paper-data="{&quot;glyphName&quot;:&quot;'&quot;,&quot;glyphIndex&quot;:5,&quot;word&quot;:1}"></path>
        <path
          d="M201.0946,128.74817c-2.48941,1.7286 -3.00058,4.10873 -1.47993,6.29866c2.52142,3.63117 7.20231,0.46406 8.64498,2.54169c0.67584,0.9733 0.03891,2.05365 -0.85953,2.67751c-1.01074,0.70184 -2.46909,0.799 -2.93442,0.92792l0.71374,2.30636c0.51576,-0.1362 2.15296,-0.13561 4.02469,-1.43531c2.71402,-1.88456 3.13732,-4.23143 1.52569,-6.55238c-2.40444,-3.46271 -7.07234,-0.27689 -8.64498,-2.54169c-0.36392,-0.52409 -0.49956,-1.67829 0.64219,-2.47111c1.01074,-0.70184 2.46909,-0.799 2.93442,-0.92792l-0.71374,-2.30636c-0.51576,0.1362 -1.98139,0.18293 -3.85312,1.48262z"
          data-paper-data="{&quot;glyphName&quot;:&quot;S&quot;,&quot;glyphIndex&quot;:6,&quot;lastGlyphOfWord&quot;:true,&quot;word&quot;:1}">
        </path>
        <path
          d="M236.2016,112.04809l1.64426,10.17912l-4.85252,-7.77772l-2.31819,0.82623l1.16059,9.09356l-5.14301,-8.93213l-3.00506,1.07104l7.97454,13.0757l2.76895,-0.98688l-1.18778,-9.71285l5.13729,8.3052l2.81188,-1.00218l-2.0932,-15.17188z"
          data-paper-data="{&quot;glyphName&quot;:&quot;W&quot;,&quot;glyphIndex&quot;:7,&quot;firstGlyphOfWord&quot;:true,&quot;word&quot;:2}">
        </path>
        <path
          d="M259.31487,122.02628l-0.43806,-2.53743l-4.85031,0.83736l-0.67454,-3.90719l3.68264,-0.63577l-0.41093,-2.38024l-3.68264,0.63577l-0.58925,-3.41318l4.85031,-0.83736l-0.43806,-2.53743l-7.99402,1.3801l2.55085,14.77547z"
          data-paper-data="{&quot;glyphName&quot;:&quot;E&quot;,&quot;glyphIndex&quot;:8,&quot;word&quot;:2}"></path>
        <path
          d="M267.3271,121.21393c0.72903,-0.01522 2.21322,0.11334 3.96746,0.07672c4.21473,-0.08799 6.50571,-1.70848 6.3792,-7.76858c-0.12889,-6.17401 -2.50638,-7.60588 -6.69833,-7.51837c-1.77702,0.0371 -3.23224,0.20423 -3.96127,0.21945zM271.53888,118.8012c-0.3873,0.00809 -0.7746,0.01617 -1.09403,0.00005l-0.21402,-10.25205c0.36404,-0.03039 0.75087,-0.06126 1.06982,-0.06792c2.11876,-0.04423 3.04104,1.55477 3.11523,5.10881c0.07134,3.41735 -0.78103,5.16736 -2.877,5.21111z"
          data-paper-data="{&quot;glyphName&quot;:&quot;D&quot;,&quot;glyphIndex&quot;:9,&quot;word&quot;:2}"></path>
        <path
          d="M285.81475,121.46319c0.7222,0.10078 2.16711,0.46348 3.90489,0.706c4.17519,0.58266 6.6945,-0.65332 7.53228,-6.65656c0.85352,-6.11609 -1.26632,-7.90745 -5.41894,-8.48696c-1.76035,-0.24566 -3.22364,-0.31182 -3.94583,-0.41261zM290.35633,119.75016c-0.38367,-0.05354 -0.76733,-0.10708 -1.08014,-0.17375l1.41729,-10.15587c0.36425,0.02782 0.75106,0.0588 1.06702,0.10289c2.09888,0.29291 2.75544,2.01811 2.26411,5.53881c-0.47243,3.38529 -1.59197,4.97767 -3.66828,4.68791z"
          data-paper-data="{&quot;glyphName&quot;:&quot;D&quot;,&quot;glyphIndex&quot;:10,&quot;word&quot;:2}"></path>
        <path d="M311.29546,111.11232l-3.0527,-0.84478l-3.99904,14.45092l3.0527,0.84478z"
          data-paper-data="{&quot;glyphName&quot;:&quot;I&quot;,&quot;glyphIndex&quot;:11,&quot;word&quot;:2}"></path>
        <path
          d="M331.14132,118.68511l-2.55364,-1.09892l-3.06256,7.11669c-0.25221,0.58608 -0.47766,1.28291 -0.59476,1.55502l-0.04186,-0.01802c-0.21024,-3.48913 -0.40246,-7.02012 -0.63363,-10.51825l-2.61643,-1.12594l-5.92695,13.77289l2.55364,1.09892l3.07157,-7.13762c0.27023,-0.62794 0.48666,-1.30384 0.60376,-1.57595l0.02093,0.00901l0.65748,10.57813l2.5955,1.11693z"
          data-paper-data="{&quot;glyphName&quot;:&quot;N&quot;,&quot;glyphIndex&quot;:12,&quot;word&quot;:2}"></path>
        <path
          d="M345.7923,134.44077l-3.99992,-2.54282l-1.35699,2.13457l1.3269,0.84353l-2.13939,3.36532c-0.20453,-0.10302 -0.3776,-0.21305 -0.55068,-0.32307c-2.19226,-1.39366 -1.89776,-3.2586 0.00936,-6.25854c1.90712,-2.99994 3.47083,-4.05802 5.66309,-2.66436c0.92306,0.5868 1.88829,1.65945 2.15586,2.04557c0.54326,-0.59971 1.08652,-1.19943 1.64901,-1.78691c-0.26579,-0.30398 -1.3133,-1.67195 -2.90942,-2.68663c-3.40378,-2.16384 -6.52296,-1.12252 -9.34695,3.3197c-2.824,4.44222 -2.44324,7.70851 0.96053,9.87235c1.78843,1.13693 3.62548,1.60273 4.05198,1.73885z"
          data-paper-data="{&quot;glyphName&quot;:&quot;G&quot;,&quot;glyphIndex&quot;:13,&quot;lastGlyphOfWord&quot;:true,&quot;word&quot;:2}">
        </path>
        <path
          d="M355.7466,153.98633l2.10645,2.24196l3.60375,-3.38592c0.20184,0.2481 0.43489,0.52942 0.70014,0.81174c1.98162,2.10911 4.50517,2.86483 7.26196,0.27467c2.45786,-2.30929 2.70679,-4.60682 0.03862,-7.44664c-0.99861,-1.06286 -2.2373,-2.18156 -2.78342,-2.76281zM367.77517,148.21913c0.90499,0.96321 0.80444,2.12078 -0.54074,3.38465c-1.49464,1.4043 -2.60139,1.22472 -3.50638,0.26151l-0.57732,-0.61446l3.9525,-3.71359c0.25066,0.2335 0.4691,0.466 0.67195,0.6819z"
          data-paper-data="{&quot;glyphName&quot;:&quot;P&quot;,&quot;glyphIndex&quot;:14,&quot;firstGlyphOfWord&quot;:true,&quot;word&quot;:3}">
        </path>
        <path
          d="M365.87609,165.3272l1.82867,2.61409l2.52048,-0.9289l2.4034,3.43566l-1.73676,2.04923l1.92011,2.74479l9.93507,-11.95574l-2.19441,-3.13691zM379.22625,163.30205c-1.15591,1.17014 -3.27733,3.54407 -5.0794,5.49993l-1.8548,-2.65143c2.46823,-1.00359 5.42561,-2.18251 6.9342,-2.8485z"
          data-paper-data="{&quot;glyphName&quot;:&quot;A&quot;,&quot;glyphIndex&quot;:15,&quot;word&quot;:3}"></path>
        <path
          d="M376.56206,181.71876l1.30675,2.70925l5.1722,-2.4947c0.0693,0.14367 0.21634,0.55344 0.46383,1.06655l-4.09169,4.62998l1.45524,3.01712l4.23344,-5.28024c0.99529,0.96201 2.64882,1.50534 4.84496,0.44608c3.20184,-1.54434 3.58967,-3.73006 1.99583,-7.03452c-0.68307,-1.4162 -1.53879,-2.87562 -1.87538,-3.57346zM385.66619,182.23567c-0.24749,-0.51311 -0.44331,-1.07645 -0.5522,-1.30222l4.16649,-2.00962c0.21852,0.40059 0.41723,0.76014 0.58553,1.10905c0.62367,1.29305 0.1726,2.1937 -1.26412,2.88667c-1.4162,0.68307 -2.41102,0.40392 -2.9357,-0.68388z"
          data-paper-data="{&quot;glyphName&quot;:&quot;R&quot;,&quot;glyphIndex&quot;:16,&quot;word&quot;:3}"></path>
        <path
          d="M400.48727,201.39368l-2.81959,-8.93107l-2.4555,0.77521l0.933,2.95529l-11.8429,3.73887l0.95358,3.02048l11.8429,-3.73887l0.92614,2.93356z"
          data-paper-data="{&quot;glyphName&quot;:&quot;T&quot;,&quot;glyphIndex&quot;:17,&quot;word&quot;:3}"></path>
        <path
          d="M393.83775,219.33494l0.96004,0.24334c3.20424,0.88734 6.42752,1.74868 9.65428,2.63254l-0.51958,-3.35532c-2.90771,-0.61044 -6.24169,-1.29322 -7.52397,-1.53277c1.14976,-0.61616 4.12108,-2.27535 6.70798,-3.73665l-0.51958,-3.35532c-2.8083,1.81841 -5.6201,3.6143 -8.40588,5.42923l-0.83799,0.54483l-4.8866,0.75671l0.48471,3.13013z"
          data-paper-data="{&quot;glyphName&quot;:&quot;Y&quot;,&quot;glyphIndex&quot;:18,&quot;lastGlyphOfWord&quot;:true,&quot;word&quot;:3}">
        </path>
      </g>
      <g data-paper-data="{&quot;isSecondaryText&quot;:true}" fill-rule="nonzero">
        <path d="M164.25667,280.61036l-0.65722,-1.67605l-7.93409,3.11116l0.65722,1.67605z"
          data-paper-data="{&quot;glyphName&quot;:&quot;I&quot;,&quot;glyphIndex&quot;:0,&quot;firstGlyphOfWord&quot;:true,&quot;word&quot;:1}">
        </path>
        <path
          d="M169.24496,291.44339l-2.36059,-4.77115l-1.31178,0.64902l0.78112,1.57878l-6.32671,3.13022l0.79835,1.6136l6.32671,-3.13022l0.77538,1.56717z"
          data-paper-data="{&quot;glyphName&quot;:&quot;T&quot;,&quot;glyphIndex&quot;:1,&quot;word&quot;:1}"></path>
        <path d="M173.5855,297.85814l-0.7403,-1.23239l-2.59347,1.76942l0.55356,0.92152z"
          data-paper-data="{&quot;glyphName&quot;:&quot;'&quot;,&quot;glyphIndex&quot;:2,&quot;word&quot;:1}"></path>
        <path
          d="M178.40416,305.90344c-1.00577,-1.39848 -2.3632,-1.6666 -3.59344,-0.78182c-2.03988,1.46706 -0.19601,4.09743 -1.36316,4.93683c-0.54677,0.39323 -1.16672,0.04142 -1.52971,-0.46329c-0.40836,-0.5678 -0.47729,-1.39567 -0.55493,-1.6589l-1.30399,0.4273c0.08225,0.29182 0.09731,1.22225 0.85353,2.27374c1.09652,1.52465 2.43422,1.74315 3.73806,0.80544c1.94525,-1.399 0.09086,-4.02181 1.36316,-4.93683c0.29442,-0.21174 0.94908,-0.29968 1.41037,0.34172c0.40836,0.5678 0.47729,1.39567 0.55493,1.6589l1.30399,-0.4273c-0.08225,-0.29182 -0.12259,-1.1243 -0.8788,-2.17579z"
          data-paper-data="{&quot;glyphName&quot;:&quot;S&quot;,&quot;glyphIndex&quot;:3,&quot;lastGlyphOfWord&quot;:true,&quot;word&quot;:1}">
        </path>
        <path
          d="M183.43446,325.37029c0.29609,0.29001 0.83408,0.94387 1.54654,1.64171c1.71176,1.67663 3.28087,1.9626 5.6916,-0.49863c2.45603,-2.50749 2.09209,-4.0424 0.38958,-5.70996c-0.72171,-0.7069 -1.36827,-1.23141 -1.66435,-1.52142zM186.08914,326.12126c-0.1573,-0.15407 -0.31459,-0.30814 -0.43507,-0.44427l4.07829,-4.16373c0.15711,0.13575 0.32347,0.28057 0.453,0.40745c0.86051,0.84285 0.5779,1.85324 -0.83591,3.29667c-1.35943,1.38791 -2.40906,1.73767 -3.26032,0.90389z"
          data-paper-data="{&quot;glyphName&quot;:&quot;D&quot;,&quot;glyphIndex&quot;:4,&quot;firstGlyphOfWord&quot;:true,&quot;word&quot;:2}">
        </path>
        <path
          d="M192.72251,334.00307l1.41822,1.12983l1.22391,-0.91273l1.86395,1.48492l-0.6161,1.39694l1.48913,1.18633l3.48679,-8.11828l-1.70187,-1.3558zM199.67203,330.74643c-0.44129,0.82415 -1.21468,2.4601 -1.88144,3.81669l-1.43848,-1.14597c1.18339,-0.94501 2.60511,-2.06446 3.31992,-2.67072z"
          data-paper-data="{&quot;glyphName&quot;:&quot;A&quot;,&quot;glyphIndex&quot;:5,&quot;word&quot;:2}"></path>
        <path
          d="M213.64284,338.50881l-1.33416,-0.84663l-2.35947,3.71815c-0.19431,0.3062 -0.38357,0.67696 -0.47378,0.81913l-0.02187,-0.01388c0.19616,-1.97703 0.4062,-3.97593 0.59142,-5.9599l-1.36697,-0.86745l-4.56626,7.19572l1.33416,0.84663l2.36641,-3.72909c0.20819,-0.32807 0.39051,-0.6879 0.48072,-0.83006l0.01094,0.00694l-0.58343,5.99565l1.35603,0.86051z"
          data-paper-data="{&quot;glyphName&quot;:&quot;N&quot;,&quot;glyphIndex&quot;:6,&quot;word&quot;:2}"></path>
        <path
          d="M223.2714,347.64564l-2.41473,-1.19439l-0.63739,1.28863l0.80104,0.39622l-1.0049,2.03162c-0.12183,-0.04581 -0.22632,-0.09749 -0.3308,-0.14917c-1.32346,-0.65462 -1.27015,-1.72642 -0.37436,-3.53746c0.89579,-1.81105 1.71531,-2.50385 3.03877,-1.84924c0.55724,0.27563 1.16779,0.82326 1.34243,1.02524c0.27063,-0.37187 0.54127,-0.74374 0.82351,-1.10987c-0.16865,-0.15566 -0.84361,-0.86521 -1.80717,-1.34181c-2.05484,-1.01638 -3.75442,-0.23869 -5.08088,2.44305c-1.32646,2.68174 -0.91315,4.50452 1.14169,5.52091c1.07966,0.53403 2.14609,0.68583 2.39538,0.73689z"
          data-paper-data="{&quot;glyphName&quot;:&quot;G&quot;,&quot;glyphIndex&quot;:7,&quot;word&quot;:2}"></path>
        <path
          d="M232.3348,356.69908l0.51357,-1.37048l-2.61969,-0.98169l0.79081,-2.1103l1.98902,0.74536l0.48176,-1.28559l-1.98902,-0.74536l0.69082,-1.84348l2.61969,0.98169l0.51357,-1.37048l-4.31763,-1.61797l-2.99052,7.98035z"
          data-paper-data="{&quot;glyphName&quot;:&quot;E&quot;,&quot;glyphIndex&quot;:8,&quot;word&quot;:2}"></path>
        <path
          d="M239.5813,359.0237l1.65289,0.4368l0.8339,-3.15552c0.08765,0.02316 0.31895,0.11108 0.632,0.19381l0.48752,3.47794l1.84072,0.48644l-0.71596,-3.77944c0.78324,-0.07434 1.6289,-0.58766 1.98298,-1.92751c0.51622,-1.95342 -0.28439,-2.92859 -2.30042,-3.46136c-0.86401,-0.22833 -1.81049,-0.39807 -2.23623,-0.51058zM243.16875,355.283c-0.31305,-0.08273 -0.62869,-0.20633 -0.76643,-0.24273l0.67175,-2.54195c0.25375,0.05366 0.48245,0.1007 0.69532,0.15696c0.78888,0.20847 1.01115,0.73609 0.77952,1.61262c-0.22833,0.86401 -0.7165,1.19048 -1.38016,1.0151z"
          data-paper-data="{&quot;glyphName&quot;:&quot;R&quot;,&quot;glyphIndex&quot;:9,&quot;word&quot;:2}"></path>
        <path
          d="M258.98618,358.71465c0.46741,-2.98135 -0.46753,-4.5438 -2.5404,-4.86878c-2.06007,-0.32297 -3.42832,0.87839 -3.89573,3.85974c-0.46741,2.98135 0.46553,4.5566 2.5256,4.87957c2.07287,0.32498 3.44312,-0.88918 3.91053,-3.87053zM257.16922,358.42979c-0.29288,1.86814 -0.87285,2.89156 -1.8709,2.73509c-0.98525,-0.15447 -1.2114,-1.30427 -0.91852,-3.17241c0.29288,-1.86814 0.87085,-2.87877 1.8433,-2.72631c0.98525,0.15447 1.239,1.29549 0.94611,3.16363z"
          data-paper-data="{&quot;glyphName&quot;:&quot;O&quot;,&quot;glyphIndex&quot;:10,&quot;word&quot;:2}"></path>
        <path
          d="M266.04529,359.68537c-0.14682,3.01419 0.59915,4.2046 2.68192,4.30606c2.0957,0.10208 2.9021,-1.01271 3.04892,-4.0269l0.21992,-4.51482l-1.77229,-0.08633l-0.21992,4.51482c-0.092,1.88872 -0.19764,2.72644 -1.20668,2.67729c-0.99611,-0.04852 -1.0457,-0.8938 -0.9537,-2.78252l0.21992,-4.51482l-1.79817,-0.08759z"
          data-paper-data="{&quot;glyphName&quot;:&quot;U&quot;,&quot;glyphIndex&quot;:11,&quot;word&quot;:2}"></path>
        <path
          d="M281.43704,355.13228c-1.72035,0.08783 -2.68106,1.08359 -2.6038,2.59698c0.12811,2.50938 3.33796,2.38441 3.41126,3.82019c0.03434,0.67262 -0.59722,1.00314 -1.2181,1.03484c-0.69849,0.03566 -1.4317,-0.35487 -1.69502,-0.43221l-0.34722,1.32756c0.28985,0.08895 1.08009,0.58032 2.37358,0.51429c1.87557,-0.09575 2.78388,-1.10181 2.702,-2.70574c-0.12217,-2.39296 -3.33135,-2.25506 -3.41126,-3.82019c-0.01849,-0.36218 0.26223,-0.9601 1.05126,-1.00038c0.69849,-0.03566 1.4317,0.35487 1.69502,0.43221l0.34722,-1.32756c-0.28985,-0.08895 -1.01145,-0.50601 -2.30494,-0.43998z"
          data-paper-data="{&quot;glyphName&quot;:&quot;S&quot;,&quot;glyphIndex&quot;:12,&quot;lastGlyphOfWord&quot;:true,&quot;word&quot;:2}">
        </path>
        <path
          d="M303.26773,352.11147l-5.19926,1.14191l0.31395,1.42948l1.72044,-0.37786l1.51421,6.8944l1.75839,-0.38619l-1.51421,-6.8944l1.70779,-0.37508z"
          data-paper-data="{&quot;glyphName&quot;:&quot;T&quot;,&quot;glyphIndex&quot;:13,&quot;firstGlyphOfWord&quot;:true,&quot;word&quot;:3}">
        </path>
        <path
          d="M316.60658,352.55667c-0.94057,-2.86744 -2.48414,-3.83325 -4.47781,-3.17929c-1.98137,0.64992 -2.65299,2.34235 -1.71242,5.20979c0.94057,2.86744 2.48818,3.84556 4.46954,3.19563c1.99367,-0.65396 2.66126,-2.35869 1.72069,-5.22614zM314.85904,353.12989c0.58937,1.79677 0.53868,2.97201 -0.42123,3.28688c-0.94761,0.31083 -1.67224,-0.61009 -2.26161,-2.40686c-0.58937,-1.79677 -0.53465,-2.9597 0.40066,-3.2665c0.94761,-0.31083 1.69282,0.58971 2.28219,2.38648z"
          data-paper-data="{&quot;glyphName&quot;:&quot;O&quot;,&quot;glyphIndex&quot;:14,&quot;lastGlyphOfWord&quot;:true,&quot;word&quot;:3}">
        </path>
        <path
          d="M335.7509,342.99352l-2.37243,1.27634l0.68112,1.26606l0.78701,-0.4234l1.07384,1.99604c-0.10792,0.07277 -0.21058,0.12799 -0.31323,0.18322c-1.30028,0.69953 -2.14303,0.03517 -3.10028,-1.74415c-0.95725,-1.77933 -1.04721,-2.84867 0.25307,-3.5482c0.54748,-0.29454 1.34756,-0.47495 1.61337,-0.50029c-0.14633,-0.43603 -0.29266,-0.87205 -0.42759,-1.31421c-0.22458,0.04729 -1.19395,0.1864 -2.14064,0.69571c-2.01885,1.08611 -2.36953,2.92197 -0.95207,5.55675c1.41747,2.63477 3.14267,3.35384 5.16152,2.26773c1.06075,-0.57067 1.80228,-1.35199 1.98831,-1.5256z"
          data-paper-data="{&quot;glyphName&quot;:&quot;G&quot;,&quot;glyphIndex&quot;:15,&quot;firstGlyphOfWord&quot;:true,&quot;word&quot;:4}">
        </path>
        <path
          d="M347.24295,336.43552c-1.70039,-2.49311 -3.45156,-2.9919 -5.18496,-1.80966c-1.7227,1.17495 -1.89754,2.98736 -0.19715,5.48046c1.70039,2.49311 3.45886,3.0026 5.18156,1.82765c1.7334,-1.18225 1.90094,-3.00535 0.20055,-5.49846zM345.72355,337.47181c1.06548,1.5622 1.3434,2.70524 0.50879,3.27447c-0.8239,0.56193 -1.77592,-0.12134 -2.8414,-1.68354c-1.06548,-1.5622 -1.3361,-2.69454 -0.5229,-3.24917c0.8239,-0.56193 1.79002,0.09604 2.8555,1.65824z"
          data-paper-data="{&quot;glyphName&quot;:&quot;O&quot;,&quot;glyphIndex&quot;:16,&quot;lastGlyphOfWord&quot;:true,&quot;word&quot;:4}">
        </path>
        <path
          d="M361.99995,329.83522l1.29507,-1.26912l-0.75591,-1.32651l1.7021,-1.66798l1.31094,0.78261l1.35983,-1.33257l-7.62995,-4.45512l-1.55409,1.52294zM359.61926,322.53907c0.76388,0.53894 2.29275,1.50693 3.55744,2.33486l-1.31357,1.28725c-0.79291,-1.29025 -1.72975,-2.83841 -2.24387,-3.62211z"
          data-paper-data="{&quot;glyphName&quot;:&quot;A&quot;,&quot;glyphIndex&quot;:17,&quot;firstGlyphOfWord&quot;:true,&quot;word&quot;:5}">
        </path>
        <path
          d="M374.55774,316.3678l-1.04982,-1.02637l-1.61663,1.9404l-5.42318,-4.51826l-1.15236,1.38316l6.54761,5.45508z"
          data-paper-data="{&quot;glyphName&quot;:&quot;L&quot;,&quot;glyphIndex&quot;:18,&quot;word&quot;:5}"></path>
        <path
          d="M378.96393,302.99957c-2.4936,-1.69967 -4.30595,-1.52431 -5.4877,0.20943c-1.17445,1.72304 -0.67515,3.47407 1.81845,5.17374c2.4936,1.69967 4.31665,1.53161 5.49111,-0.19143c1.18175,-1.73374 0.67174,-3.49206 -1.82185,-5.19174zM377.92808,304.51927c1.56251,1.06503 2.23876,2.02755 1.66977,2.86232c-0.56169,0.82406 -1.69751,0.53578 -3.26002,-0.52925c-1.56251,-1.06503 -2.22806,-2.02026 -1.67366,-2.83362c0.56169,-0.82406 1.7014,-0.56448 3.26391,0.50056z"
          data-paper-data="{&quot;glyphName&quot;:&quot;O&quot;,&quot;glyphIndex&quot;:19,&quot;word&quot;:5}"></path>
        <path
          d="M381.69199,289.63087l-0.74292,1.39457l3.88652,2.07044c0.32007,0.17051 0.70412,0.33108 0.85273,0.41024l-0.01218,0.02286c-1.98622,-0.04553 -3.99529,-0.10325 -5.9876,-0.13735l-0.76119,1.42887l7.52155,4.00692l0.74292,-1.39457l-3.89795,-2.07653c-0.34293,-0.18269 -0.71556,-0.33717 -0.86416,-0.41633l0.00609,-0.01143l6.02264,0.12667l0.7551,-1.41744z"
          data-paper-data="{&quot;glyphName&quot;:&quot;N&quot;,&quot;glyphIndex&quot;:20,&quot;word&quot;:5}"></path>
        <path
          d="M394.32384,282.09394l-1.35632,-0.54988l-1.0511,2.59262l-2.0885,-0.84672l0.79806,-1.96847l-1.2723,-0.51582l-0.79806,1.96847l-1.82443,-0.73967l1.0511,-2.59262l-1.35632,-0.54988l-1.73237,4.27302l7.89788,3.20197z"
          data-paper-data="{&quot;glyphName&quot;:&quot;E&quot;,&quot;glyphIndex&quot;:21,&quot;lastGlyphOfWord&quot;:true,&quot;word&quot;:5}">
        </path>
      </g>
    </g>
  </g>
</svg>
