<?xml version="1.0" standalone="no"?>
<!DOCTYPE svg PUBLIC "-//W3C//DTD SVG 20010904//EN" "http://www.w3.org/TR/2001/REC-SVG-20010904/DTD/svg10.dtd">
<svg version="1.0" xmlns="http://www.w3.org/2000/svg" width="1019.000000pt" height="962.000000pt"
  viewBox="0 0 962 962" preserveAspectRatio="xMidYMid meet">

  <g transform="translate(20.000000,962.000000) scale(0.100000,-0.100000)" fill="#000000" stroke="none">
    <path d="M4041 8435 c-24 -47 -60 -131 -80 -188 -33 -95 -38 -102 -61 -99 -36
6 -91 -14 -139 -48 -58 -43 -114 -133 -152 -248 -37 -112 -53 -148 -82 -179
-39 -43 -77 -21 -98 57 -11 42 -10 49 14 97 82 161 144 360 154 490 7 98 -8
133 -56 133 -43 0 -84 -40 -125 -124 -62 -126 -89 -247 -91 -417 -2 -140 -3
-148 -27 -179 l-25 -32 -7 43 c-8 54 -42 115 -78 142 -36 27 -77 15 -98 -28
-11 -22 -21 -29 -37 -27 -34 5 -92 -120 -100 -216 -22 -266 236 -287 306 -25
9 33 21 49 56 72 25 17 45 26 45 21 0 -23 64 -80 97 -86 66 -12 143 51 173
141 l11 34 34 -33 c60 -60 137 -54 204 16 38 39 40 40 62 24 33 -23 80 -20
120 7 55 37 120 188 89 207 -23 14 -36 1 -55 -57 -21 -61 -58 -113 -81 -113
-8 0 -19 12 -24 26 -30 77 14 304 107 552 27 74 32 96 22 108 -22 26 -36 14
-78 -71z m-501 -152 c-15 -95 -118 -393 -135 -393 -6 0 4 122 16 199 14 89 65
243 91 276 l22 28 8 -23 c4 -12 3 -51 -2 -87z m363 -300 c-4 -94 -9 -114 -32
-153 -15 -26 -42 -54 -64 -65 l-37 -20 -22 23 c-35 35 -32 128 6 205 30 63 92
117 132 117 23 0 23 0 17 -107z m-721 -174 c18 -25 41 -119 28 -119 -26 0 -81
99 -72 132 6 23 20 19 44 -13z m-84 -71 c18 -42 82 -108 103 -108 27 0 -16
-107 -58 -146 -59 -55 -103 -5 -103 117 0 63 23 179 36 179 2 0 12 -19 22 -42z" />
    <path d="M5924 8229 c-32 -23 -71 -53 -87 -67 -26 -25 -29 -26 -74 -13 -42 11
-49 10 -60 -5 -16 -21 -3 -39 33 -48 l26 -7 -39 -42 c-83 -90 -144 -198 -145
-256 0 -48 15 -77 55 -101 41 -25 73 -25 139 0 29 11 54 20 56 20 1 0 2 -11 2
-23 0 -51 75 -80 146 -57 20 7 103 50 183 96 101 58 156 84 179 84 68 0 19
-57 -123 -140 -49 -30 -100 -60 -112 -67 -28 -16 -29 -34 -4 -57 18 -16 22
-16 82 12 35 16 114 57 174 92 61 34 128 69 149 76 83 30 64 -26 -32 -95 -31
-23 -85 -61 -119 -86 -35 -25 -63 -49 -63 -54 0 -5 8 -19 19 -32 l18 -23 94
56 c173 103 277 146 292 120 9 -13 -48 -63 -120 -106 -71 -42 -103 -81 -103
-124 0 -35 20 -59 57 -68 26 -7 106 0 134 11 14 5 16 0 12 -39 -7 -62 1 -86
44 -129 63 -64 155 -80 283 -51 80 18 122 45 102 65 -10 11 -24 10 -76 -4 -73
-19 -171 -22 -213 -6 -64 24 -91 80 -60 123 12 16 16 15 72 -10 127 -59 275
-36 301 46 16 47 -1 88 -47 115 -27 16 -51 20 -124 19 -76 0 -112 -7 -230 -42
-208 -62 -220 -57 -91 37 108 78 141 130 120 186 -12 29 -63 48 -115 41 l-48
-7 5 33 c11 67 -59 112 -140 90 -30 -9 -36 -8 -36 5 0 8 -13 28 -29 44 -53 52
-97 40 -326 -91 -132 -75 -153 -84 -174 -71 -20 13 8 49 119 154 87 83 108
117 73 117 -17 0 -130 -67 -228 -135 -116 -81 -187 -104 -215 -70 -25 30 40
147 151 268 l44 49 78 -23 c58 -17 83 -20 95 -12 32 20 18 37 -48 56 -36 10
-67 21 -69 23 -3 3 22 31 54 64 49 49 58 63 49 77 -17 27 -27 25 -90 -18z
m1156 -849 c22 -14 2 -41 -41 -56 -63 -23 -199 -11 -199 17 0 4 28 17 63 28
67 21 153 27 177 11z" />
    <path d="M5067 8141 c-48 -60 -119 -143 -159 -185 -125 -131 -143 -88 -43 107
30 59 55 114 55 122 0 19 -34 19 -50 0 -10 -12 -16 -11 -42 8 -41 30 -126 29
-187 -2 -213 -111 -276 -391 -87 -391 45 0 80 14 126 50 l37 29 11 -23 c20
-44 94 -46 146 -5 l26 20 10 -25 c26 -68 126 -85 226 -37 68 32 174 131 174
162 0 39 -28 30 -80 -25 -59 -62 -75 -70 -59 -28 7 17 9 71 5 147 -5 97 -3
124 9 139 16 21 5 46 -20 46 -6 0 -51 -49 -98 -109z m-263 -3 c11 -19 4 -35
-61 -135 -66 -101 -152 -164 -198 -147 -24 10 -26 52 -3 111 48 128 219 240
262 171z m301 -95 c-10 -86 -25 -131 -56 -164 -34 -36 -68 -37 -97 -4 l-23 26
87 99 c48 55 89 100 92 100 2 0 1 -26 -3 -57z" />
    <path d="M6199 8048 c-30 -10 -53 -46 -47 -74 5 -27 49 -29 81 -4 50 40 25 99
-34 78z" />
    <path d="M2392 7507 c-21 -25 -25 -186 -8 -315 16 -119 14 -186 -6 -198 -20
-13 -56 67 -97 215 -12 41 -25 79 -30 84 -14 14 -41 -10 -41 -34 0 -15 -7 -19
-31 -19 -25 0 -43 -11 -79 -47 -57 -58 -80 -123 -80 -227 1 -177 102 -281 208
-216 34 21 71 87 72 127 0 42 9 52 46 46 28 -5 38 -1 63 26 16 17 32 47 35 67
6 28 11 34 24 29 58 -24 88 -17 142 31 62 56 102 194 85 294 -6 35 -10 41 -28
38 -20 -3 -23 -11 -28 -88 -3 -47 -6 -80 -7 -74 -5 29 -68 106 -122 149 -36
29 -63 59 -67 74 -11 47 -31 62 -51 38z m138 -261 c34 -66 37 -101 14 -134
-11 -16 -25 -22 -52 -22 l-37 0 -14 78 c-18 109 -24 179 -17 198 5 14 12 10
41 -22 19 -21 48 -66 65 -98z m-293 -152 c22 -105 21 -214 -3 -255 -25 -42
-49 -47 -80 -18 -55 52 -72 218 -31 299 26 52 64 77 85 56 8 -8 21 -45 29 -82z" />
    <path d="M7756 6781 c-8 -12 49 -169 73 -202 14 -18 16 -30 9 -42 -14 -25 -6
-78 14 -91 12 -7 24 -6 42 4 36 19 66 1 111 -66 l35 -54 -24 0 c-27 0 -56 -24
-56 -45 0 -23 28 -43 54 -38 29 6 40 -11 51 -77 16 -99 59 -160 112 -160 21 0
22 -2 13 -20 -6 -12 -10 -33 -8 -48 2 -21 8 -27 28 -27 33 0 47 -10 66 -47
l16 -30 -23 16 c-29 20 -73 21 -89 1 -16 -19 -6 -45 21 -52 20 -6 20 -6 -2
-29 -30 -32 -17 -74 26 -89 23 -8 29 -15 27 -32 -2 -13 4 -26 16 -32 24 -13
59 9 74 48 l11 26 10 -39 c9 -35 7 -41 -13 -56 -29 -22 -23 -51 16 -71 31 -15
31 -15 13 -38 -34 -41 -27 -68 46 -194 l28 -49 -27 -25 c-25 -23 -26 -27 -13
-46 18 -28 53 -33 77 -12 17 16 19 13 30 -54 14 -85 8 -108 -30 -116 -15 -3
-30 -12 -33 -19 -9 -23 21 -75 47 -82 20 -5 26 -12 26 -35 0 -24 17 -78 61
-186 5 -13 13 -23 18 -23 21 0 51 159 42 217 -5 32 -3 40 14 48 26 14 43 61
29 83 -6 9 -25 18 -41 20 -41 4 -56 24 -76 99 -9 35 -17 64 -17 65 0 2 17 3
37 3 37 0 38 1 38 35 0 29 -4 36 -23 38 -31 5 -42 38 -42 127 0 91 -12 120
-61 142 -36 16 -37 17 -22 39 10 15 13 33 9 50 -6 21 -11 25 -30 20 -20 -5
-28 1 -45 30 -26 43 -26 47 -2 34 58 -30 110 12 69 56 -17 19 -17 22 -4 27 19
8 22 67 4 85 -22 22 -64 14 -76 -13 -6 -14 -16 -25 -22 -25 -13 0 2 31 24 50
33 26 7 78 -32 66 -20 -7 -41 -44 -43 -74 -1 -22 -28 36 -29 62 0 10 7 24 17
31 21 16 12 40 -26 63 -26 16 -28 19 -15 37 32 43 5 111 -75 190 -54 52 -60
67 -36 91 21 21 19 31 -10 50 -23 15 -27 15 -50 0 -14 -9 -25 -24 -25 -34 0
-24 -80 118 -80 143 0 11 9 26 20 33 11 7 20 21 20 31 0 27 -47 62 -74 55 -17
-4 -25 1 -33 19 -9 20 -162 147 -177 147 -3 0 -7 -4 -10 -9z m413 -555 c14
-15 18 -26 12 -30 -6 -4 -17 7 -26 24 -19 36 -16 38 14 6z m-46 -30 c13 -20
14 -25 3 -29 -9 -4 -15 4 -18 24 -5 35 -5 35 15 5z m152 -416 c-3 -5 -12 -7
-20 -3 -21 7 -19 13 6 13 11 0 18 -4 14 -10z m170 0 c3 -5 -3 -10 -14 -10 -12
0 -21 5 -21 10 0 6 6 10 14 10 8 0 18 -4 21 -10z m-156 -72 c-8 -14 -14 -18
-17 -10 -4 13 17 46 25 38 3 -2 -1 -15 -8 -28z m241 -365 c-1 -39 -10 -33 -24
15 -6 16 -3 22 8 22 12 0 16 -10 16 -37z m-57 -10 l5 -27 -18 24 c-10 14 -16
28 -14 32 9 14 21 0 27 -29z" />
    <path d="M1114 6655 c-13 -20 -16 -41 -12 -98 10 -145 130 -370 266 -499 60
-56 72 -74 90 -129 26 -83 33 -122 22 -138 -10 -17 -97 62 -172 157 -59 73
-95 85 -84 27 5 -27 4 -35 -8 -35 -20 0 -62 -53 -76 -96 -16 -48 -8 -134 20
-208 30 -78 118 -171 172 -181 102 -19 167 96 124 218 l-14 37 28 0 c19 0 36
9 50 28 19 24 21 35 16 92 -3 36 -8 77 -12 93 -6 26 -5 27 38 27 100 0 142 92
102 227 -6 21 -4 21 28 11 70 -21 158 43 188 136 24 74 -5 263 -46 297 -11 9
-17 9 -28 0 -12 -11 -12 -20 6 -69 30 -84 30 -196 0 -244 -30 -49 -70 -62
-104 -35 -15 11 -15 18 7 82 28 79 32 168 11 219 -31 74 -110 99 -160 49 -35
-35 -41 -61 -40 -168 0 -83 4 -99 46 -205 55 -137 62 -168 49 -203 -8 -20 -17
-27 -37 -27 -35 0 -114 46 -114 66 0 8 -21 79 -46 157 -104 318 -247 508 -310
412z m166 -210 c58 -119 116 -273 106 -282 -2 -3 -27 26 -55 64 -89 119 -171
296 -171 366 l0 31 31 -30 c17 -16 57 -83 89 -149z m370 103 c22 -49 27 -150
9 -195 l-11 -28 -25 55 c-40 88 -44 210 -7 210 8 0 24 -19 34 -42z m-337 -722
c63 -89 97 -159 104 -215 12 -106 -72 -102 -152 7 -61 84 -84 200 -49 250 25
36 47 26 97 -42z" />
    <path d="M786 6053 c8 -122 -10 -196 -106 -435 -112 -276 -129 -361 -95 -475
38 -127 156 -202 281 -179 54 11 128 88 148 157 16 53 21 153 10 183 -6 16
-43 23 -45 9 -1 -5 -3 -34 -5 -67 -4 -73 -19 -118 -51 -156 -67 -80 -207 -46
-265 63 -18 34 -23 58 -23 122 1 77 4 88 84 285 98 243 121 324 121 435 0 118
-7 145 -37 145 l-24 0 7 -87z" />
    <path d="M1980 5721 l0 -38 59 -6 c77 -7 146 -37 164 -74 34 -65 37 -141 37
-877 0 -766 -2 -807 -44 -872 -22 -33 -84 -60 -158 -69 -58 -6 -58 -6 -58 -41
l0 -34 734 0 734 0 5 33 c3 17 9 119 13 225 l7 192 -31 0 c-21 0 -32 -6 -35
-17 -3 -10 -13 -50 -22 -88 -30 -129 -77 -183 -176 -204 -29 -6 -160 -11 -307
-11 -347 1 -376 12 -408 146 -11 47 -14 200 -14 765 0 710 3 788 37 852 18 37
87 67 164 74 l59 6 0 38 0 39 -380 0 -380 0 0 -39z" />
    <path d="M5650 5722 l0 -39 56 -7 c105 -12 138 -43 160 -146 13 -62 14 -182
11 -829 -3 -801 -3 -805 -50 -858 -23 -26 -97 -53 -144 -53 -32 0 -33 -1 -33
-40 l0 -40 285 0 285 0 0 40 c0 40 0 40 -37 40 -54 0 -132 30 -152 60 -43 61
-44 83 -47 815 -2 385 0 693 3 685 4 -8 126 -393 273 -855 226 -716 269 -840
284 -840 16 0 56 119 272 800 l253 800 -2 -660 c-3 -709 -2 -700 -54 -757 -26
-27 -88 -48 -142 -48 -29 0 -31 -2 -31 -40 l0 -40 335 0 335 0 0 39 0 38 -54
6 c-69 7 -123 32 -141 66 -32 62 -35 145 -35 876 0 736 4 822 36 873 23 36 73
61 136 68 l58 7 0 38 0 39 -194 0 -195 0 -35 -107 c-19 -60 -134 -425 -256
-813 -123 -388 -226 -708 -229 -713 -4 -4 -71 194 -149 440 -78 247 -166 525
-196 618 -30 94 -83 260 -118 370 l-64 200 -212 3 -212 2 0 -38z" />
    <path d="M805 5739 c-24 -38 59 -153 259 -358 196 -201 229 -253 229 -351 0
-94 -52 -187 -122 -216 -42 -18 -73 -18 -114 -1 -38 16 -57 12 -57 -14 0 -38
98 -66 167 -47 151 41 237 277 163 446 -32 73 -86 135 -240 279 -125 117 -170
163 -245 256 -17 19 -31 22 -40 6z" />
    <path d="M4949 5199 c-49 -49 -69 -94 -69 -151 1 -61 19 -104 89 -212 34 -53
73 -126 87 -163 44 -119 65 -121 118 -11 45 94 69 184 55 209 -5 10 -45 60
-89 109 -98 111 -110 134 -110 205 0 48 -2 55 -20 55 -11 0 -38 -18 -61 -41z" />
    <path d="M4452 5096 c-56 -56 -106 -115 -112 -130 -17 -47 -6 -279 12 -250 4
6 19 44 34 85 35 98 51 118 109 138 43 14 52 23 75 66 l25 50 65 7 c88 10 110
16 110 32 0 20 -36 41 -132 74 l-86 31 -100 -103z" />
    <path d="M2821 5002 c-27 -36 -35 -56 -33 -85 1 -27 -3 -37 -11 -34 -35 13
-132 28 -198 30 -68 2 -74 0 -74 -18 0 -15 8 -21 30 -23 51 -5 61 -11 41 -25
-30 -22 -41 -148 -13 -147 7 1 29 16 49 34 39 34 63 80 53 104 -7 18 36 11
143 -25 204 -68 404 -200 621 -410 149 -144 10 -64 -254 146 -182 145 -221
164 -319 159 -80 -4 -110 -18 -149 -70 -27 -37 -34 -116 -13 -156 21 -40 63
-53 83 -26 12 16 10 22 -17 47 -34 32 -40 79 -15 113 14 18 14 18 15 -9 0 -18
11 -40 29 -58 33 -33 52 -36 71 -14 11 13 8 21 -18 48 -59 61 -33 96 59 84 57
-8 134 -58 258 -167 58 -52 127 -112 151 -133 l45 -38 -57 21 c-236 86 -421
96 -636 34 -100 -29 -162 -59 -162 -79 0 -24 17 -26 66 -4 45 19 192 63 183
55 -2 -2 -28 -22 -58 -45 -120 -89 -231 -271 -167 -271 9 0 22 12 29 27 l14
27 17 -36 c27 -56 90 -73 160 -44 38 16 67 51 59 72 -9 23 -49 16 -67 -11 -12
-19 -25 -25 -51 -25 -54 0 -85 47 -71 106 7 25 99 124 116 124 4 0 11 -11 14
-25 13 -50 120 -74 166 -37 39 31 -3 59 -48 31 -28 -17 -72 5 -72 35 0 78 221
85 478 15 181 -49 295 -77 336 -84 l39 -7 -56 -31 c-81 -46 -101 -65 -87 -82
10 -12 17 -11 45 11 29 22 185 94 203 94 4 0 -4 -7 -16 -16 -36 -25 -52 -68
-52 -139 0 -40 -6 -78 -15 -96 -14 -26 -14 -30 -1 -35 23 -9 149 79 171 119
31 58 10 194 -27 171 -4 -3 -8 -1 -8 4 0 5 24 14 53 21 28 6 90 30 137 54 70
35 85 46 84 65 0 12 3 22 8 22 4 0 8 4 8 10 0 5 -38 27 -84 50 -95 45 -145 95
-170 168 -19 54 -20 82 -5 116 l12 25 16 -21 c22 -27 61 -17 61 15 0 31 -11
44 -43 52 -22 6 -33 1 -61 -27 -63 -63 -57 -157 15 -248 49 -62 94 -96 164
-125 l56 -22 -53 -22 c-105 -42 -253 -51 -356 -22 -19 6 -90 62 -172 135 -78
69 -178 153 -223 187 -45 34 -72 58 -59 54 38 -11 92 53 92 107 -1 31 -64 152
-81 155 -9 2 -25 -26 -46 -81 -38 -96 -38 -97 -18 -135 14 -29 14 -29 -61 15
-42 23 -106 55 -143 70 -36 15 -68 29 -70 30 -2 2 9 18 24 35 28 34 30 69 5
133 -14 37 -30 31 -69 -22z" />
    <path d="M6561 5019 c-19 -55 -14 -107 14 -135 22 -22 23 -25 7 -31 -40 -15
-129 -55 -149 -68 -22 -15 -22 -55 1 -55 6 0 52 18 102 40 50 22 130 50 179
63 53 14 93 31 99 41 22 33 -21 37 -127 11 -25 -7 -26 -6 -21 27 5 29 0 43
-32 86 -22 29 -44 52 -51 52 -6 0 -16 -14 -22 -31z" />
    <path d="M4690 5021 c-74 -15 -79 -37 -16 -81 25 -16 49 -36 53 -43 4 -6 10
-59 13 -117 3 -72 9 -105 17 -105 16 0 122 134 130 165 4 17 -5 45 -31 97 -33
63 -42 74 -74 83 -40 11 -41 11 -92 1z" />
    <path d="M7000 4964 c-6 -14 -8 -30 -4 -35 3 -5 -2 -16 -11 -25 -9 -9 -14 -21
-12 -28 5 -15 55 -39 67 -31 14 8 13 65 -1 65 -7 0 -9 10 -5 24 12 50 -17 76
-34 30z" />
    <path d="M4575 4896 c-9 -13 -17 -42 -18 -65 -2 -47 21 -77 89 -112 34 -19 46
-21 56 -11 9 9 7 19 -12 44 -14 19 -27 55 -31 86 -4 29 -13 60 -19 68 -18 21
-48 17 -65 -10z" />
    <path d="M2141 4823 c-62 -43 -106 -99 -122 -157 -30 -110 65 -222 131 -156
24 24 25 43 4 64 -20 21 -30 20 -54 -4 -19 -19 -20 -19 -30 0 -37 69 17 176
121 237 28 17 36 43 14 49 -5 2 -34 -13 -64 -33z" />
    <path d="M4456 4838 c-35 -54 -47 -188 -20 -226 22 -31 91 -64 214 -102 121
-37 152 -52 199 -92 44 -39 56 -25 35 39 -31 96 -91 147 -204 173 -117 27
-155 62 -170 156 -13 80 -27 93 -54 52z" />
    <path d="M5340 4809 c-41 -17 -70 -50 -107 -124 -20 -38 -54 -97 -76 -129 -50
-75 -74 -135 -83 -214 l-7 -62 69 0 c141 0 174 42 174 223 0 89 4 126 16 150
21 42 83 106 112 118 15 6 22 16 20 27 -4 20 -78 27 -118 11z" />
    <path d="M7300 4797 c0 -7 14 -26 31 -43 17 -16 38 -43 45 -61 18 -42 18 -114
-1 -139 -13 -17 -14 -17 -15 -2 0 20 -31 40 -46 30 -11 -8 -12 -62 -1 -79 13
-21 62 -15 84 10 66 71 57 168 -23 257 -36 39 -74 53 -74 27z" />
    <path d="M5552 4774 c-27 -18 -26 -51 1 -68 15 -9 22 -7 37 12 18 22 19 22 29
3 29 -54 -6 -167 -70 -228 -19 -18 -69 -48 -112 -68 -53 -25 -75 -40 -70 -48
4 -7 8 -21 8 -32 0 -26 72 -65 187 -102 48 -15 88 -31 88 -34 0 -4 -9 -9 -19
-12 -14 -3 -21 -17 -26 -51 -11 -74 0 -110 50 -154 82 -72 171 -105 137 -52
-7 11 -12 46 -12 77 0 80 -15 127 -51 157 -38 32 -34 32 43 1 34 -14 67 -25
75 -25 23 0 14 29 -13 43 l-27 14 27 7 c26 6 27 9 24 59 -3 59 7 55 -113 36
-92 -15 -190 -4 -284 31 -42 16 -67 29 -56 29 39 2 141 60 187 107 81 84 107
175 72 250 -15 31 -57 64 -81 64 -5 0 -19 -7 -31 -16z" />
    <path d="M3985 4750 c-3 -5 10 -33 29 -62 35 -54 49 -91 87 -236 34 -132 88
-190 198 -213 66 -14 160 -4 168 18 3 9 -19 67 -50 132 -31 64 -62 136 -68
161 -15 61 -54 135 -81 154 -15 11 -45 16 -95 16 -47 0 -93 7 -128 19 -30 11
-57 15 -60 11z" />
    <path d="M4916 4729 c-35 -42 -41 -72 -23 -122 8 -23 27 -74 41 -114 16 -43
29 -107 34 -158 4 -47 12 -86 17 -88 15 -3 35 68 46 163 15 128 -4 276 -43
325 -26 33 -41 32 -72 -6z" />
    <path d="M6483 4695 c-22 -9 -33 -21 -33 -35 0 -24 15 -25 63 -5 44 18 108 20
125 3 19 -19 14 -37 -19 -67 -56 -52 -19 -95 40 -46 22 19 31 36 31 56 0 27 2
29 20 19 16 -9 22 -8 26 5 8 20 -22 54 -63 71 -42 18 -149 17 -190 -1z" />
    <path d="M6090 4547 c-83 -71 -105 -106 -81 -130 13 -13 34 2 130 91 67 62 73
70 62 90 -6 12 -15 22 -19 22 -4 0 -46 -33 -92 -73z" />
    <path d="M3635 4525 c-49 -17 -75 -48 -75 -87 0 -89 104 -72 135 22 9 27 21
52 26 55 5 4 9 10 9 16 0 13 -49 10 -95 -6z" />
    <path d="M5722 4534 c2 -5 16 -34 30 -66 27 -57 59 -88 90 -88 15 0 17 10 17
66 -1 61 -2 66 -27 76 -37 14 -116 23 -110 12z" />
    <path d="M6972 4528 c-23 -30 -52 -99 -52 -126 0 -16 9 -41 20 -55 l21 -26
-61 25 c-74 30 -92 31 -88 4 2 -16 31 -32 115 -69 62 -26 115 -46 118 -43 14
15 2 41 -25 52 -33 14 -40 30 -12 30 49 0 56 76 16 164 -26 58 -35 65 -52 44z" />
    <path d="M4425 4520 c-10 -17 12 -79 54 -149 110 -183 235 -253 334 -186 38
26 67 70 67 102 0 32 -46 88 -92 110 -25 13 -82 30 -128 39 -87 16 -124 31
-176 70 -33 26 -49 30 -59 14z" />
    <path d="M6165 4459 c-27 -21 -76 -56 -107 -77 -55 -36 -57 -39 -55 -77 3 -53
13 -53 157 -12 98 28 115 36 118 55 5 34 -21 36 -105 8 -42 -14 -73 -22 -67
-17 5 5 37 32 72 61 46 38 62 57 60 73 -5 32 -19 29 -73 -14z" />
    <path d="M6534 4389 c8 -40 6 -39 57 -50 50 -12 60 -4 62 42 l2 34 -64 3 -64
3 7 -32z" />
    <path d="M1640 4310 c-61 -61 28 -198 165 -255 85 -35 80 -31 66 -49 -7 -8
-22 -34 -34 -57 -27 -52 -40 -58 -55 -23 -13 27 -29 28 -46 2 -15 -24 18 -68
50 -68 42 0 63 18 88 75 25 56 24 55 121 70 61 9 219 97 223 124 4 28 -11 27
-81 -9 -32 -16 -74 -32 -94 -36 -52 -10 -112 12 -155 57 -39 40 -58 49 -58 27
0 -19 35 -69 62 -90 37 -29 -1 -22 -69 12 -97 49 -177 142 -158 186 7 17 8 17
14 -6 5 -18 15 -26 34 -28 22 -3 28 2 33 24 13 53 -65 85 -106 44z" />
    <path d="M2100 4313 c0 -36 22 -99 43 -120 12 -14 32 -23 49 -23 28 0 28 1 28
58 l0 58 -53 22 c-63 27 -67 27 -67 5z" />
    <path d="M7312 4318 c-18 -18 -16 -108 2 -108 16 0 36 50 36 91 0 31 -17 38
-38 17z" />
    <path d="M7721 4309 c-26 -24 -24 -46 5 -66 19 -12 24 -12 38 3 10 9 15 23 12
30 -3 8 -1 14 4 14 21 0 9 -50 -22 -96 -33 -49 -129 -115 -190 -129 -26 -7
-25 -5 13 35 34 35 52 80 33 80 -3 0 -28 -20 -56 -45 -57 -51 -102 -64 -163
-46 -82 25 -95 25 -95 2 0 -17 14 -29 62 -51 34 -16 82 -32 107 -35 73 -10 90
-21 112 -72 11 -27 27 -54 36 -60 42 -32 108 0 101 49 -4 33 -36 35 -48 3 -14
-38 -31 -27 -65 41 l-30 60 66 27 c113 47 189 131 189 210 0 62 -63 89 -109
46z" />
    <path d="M3113 4290 c-39 -24 -53 -48 -53 -95 0 -19 -7 -52 -15 -72 -18 -44
-18 -43 1 -43 29 0 123 51 149 81 26 32 34 93 16 127 -13 25 -60 25 -98 2z" />
    <path d="M6259 4303 c-24 -6 -33 -75 -15 -118 14 -33 66 -75 95 -75 17 0 9 46
-22 133 -22 61 -29 68 -58 60z" />
    <path d="M6787 4274 c-14 -14 -6 -37 23 -71 23 -25 30 -44 30 -73 0 -55 -26
-80 -85 -80 -37 0 -45 -3 -45 -19 0 -22 19 -31 66 -31 48 0 70 14 93 58 l19
37 43 -87 43 -87 -17 -37 c-19 -39 -12 -59 16 -48 9 3 19 16 23 27 4 12 13 27
22 33 8 6 13 17 11 25 -10 40 -124 242 -166 293 -49 60 -64 72 -76 60z" />
    <path d="M5025 4184 c-256 -108 -283 -110 -440 -47 -55 22 -116 43 -136 47
-70 12 -219 -51 -219 -94 0 -26 30 -33 97 -21 74 14 105 5 186 -53 92 -66 141
-86 212 -86 79 0 137 28 240 114 44 37 105 78 134 93 51 24 61 25 149 19 108
-8 118 2 38 43 -81 42 -134 39 -261 -15z" />
    <path d="M8326 4205 c-3 -9 17 -35 55 -72 73 -69 109 -135 109 -197 0 -48 -16
-72 -55 -82 -35 -9 -42 0 -48 62 -8 78 -58 177 -105 209 -52 35 -113 35 -141
-1 -64 -81 36 -274 173 -335 30 -13 55 -35 80 -71 20 -29 36 -57 36 -61 0 -19
-31 -2 -90 48 -105 89 -167 111 -213 75 -32 -25 -37 -78 -13 -135 l15 -35 -30
0 c-63 0 -93 -66 -62 -139 l20 -47 -29 -26 c-52 -48 -35 -112 57 -210 27 -29
64 -75 82 -103 34 -50 78 -154 69 -162 -2 -3 -66 68 -142 156 -76 89 -143 160
-148 158 -5 -2 -14 -10 -20 -19 -8 -13 5 -38 58 -117 95 -141 139 -233 144
-302 3 -37 0 -59 -8 -64 -30 -18 -135 78 -210 193 -16 25 -44 23 -54 -3 -8
-22 63 -154 106 -197 49 -49 90 -136 86 -180 l-3 -32 -33 29 c-18 17 -56 66
-85 110 -80 120 -142 144 -188 72 -17 -27 -20 -45 -16 -114 2 -45 0 -80 -5
-77 -4 3 -15 31 -23 62 -28 101 -77 235 -111 303 -66 132 -157 169 -183 74
-22 -82 24 -177 216 -441 152 -208 169 -237 187 -319 16 -68 10 -97 -17 -93
-15 2 -33 26 -62 80 -60 112 -70 121 -128 114 -30 -3 -56 -1 -67 7 -15 9 -22
9 -32 -1 -9 -9 -3 -32 27 -107 42 -105 57 -124 79 -106 12 10 11 21 -10 72
-23 57 -24 79 -4 79 6 0 24 -28 41 -62 53 -106 103 -158 153 -158 32 0 77 53
83 98 4 31 10 42 23 42 9 0 25 9 35 20 18 19 17 22 -19 77 -84 131 -146 312
-132 387 4 20 11 36 16 36 5 0 34 -42 65 -94 67 -115 111 -156 164 -156 72 0
103 63 77 153 -20 70 -21 67 8 67 14 0 38 11 53 24 25 22 28 31 28 84 l0 60
32 -37 c24 -27 33 -49 38 -91 20 -164 73 -307 139 -374 62 -61 134 -57 162 11
37 88 -22 214 -195 422 -42 50 -61 81 -61 100 0 92 -68 234 -167 344 -67 75
-89 115 -74 130 19 19 77 -21 182 -125 54 -54 102 -98 107 -98 5 0 17 9 27 20
17 19 17 21 -10 60 -16 22 -81 96 -145 164 -125 131 -148 162 -132 178 16 16
69 -16 177 -107 55 -46 105 -85 111 -85 13 0 44 32 44 46 0 5 -45 54 -101 109
-55 55 -113 118 -128 140 -75 107 -34 115 74 14 112 -103 173 -122 211 -64 21
33 13 85 -21 136 -19 30 -22 39 -10 39 25 0 83 59 96 97 29 88 -11 195 -108
291 -62 61 -95 76 -107 47z m-82 -150 c36 -28 80 -102 91 -154 l7 -34 -47 34
c-70 50 -125 124 -125 169 0 18 41 10 74 -15z m-757 -1107 c35 -38 121 -223
109 -235 -8 -9 -146 211 -146 233 0 30 11 30 37 2z m959 -426 c64 -95 79 -172
35 -172 -38 0 -104 118 -136 238 -8 33 -15 64 -15 68 1 14 75 -72 116 -134z" />
    <path d="M4047 4100 c-44 -52 -62 -123 -62 -245 0 -100 3 -116 29 -172 70
-152 255 -257 425 -240 139 14 251 123 251 243 0 45 -44 128 -83 158 -46 35
-99 44 -132 22 -14 -9 -25 -26 -25 -37 0 -32 50 -75 96 -82 23 -4 47 -13 53
-21 31 -37 13 -127 -35 -177 -43 -45 -101 -62 -186 -57 -98 6 -180 43 -244
110 -35 37 -40 45 -19 31 55 -37 122 -45 190 -23 41 14 91 68 100 109 14 65
-37 143 -72 108 -13 -13 -13 -20 3 -64 11 -32 14 -56 9 -69 -8 -17 -9 -17 -13
6 -5 31 -40 70 -63 70 -29 0 -32 -31 -4 -60 30 -32 32 -56 4 -71 -19 -9 -20
-8 -14 10 9 30 -12 63 -38 59 -22 -4 -24 -9 -12 -40 6 -14 2 -18 -19 -18 -49
0 -142 107 -160 183 -10 42 11 142 45 213 40 84 26 114 -24 54z" />
    <path d="M5364 4115 c-4 -9 8 -47 25 -85 22 -47 34 -91 38 -139 5 -62 3 -74
-20 -113 -40 -69 -104 -128 -139 -128 -26 0 -28 2 -17 21 13 25 0 43 -27 37
-13 -2 -20 -13 -22 -36 -3 -34 -11 -39 -30 -20 -17 17 -15 22 14 57 28 34 26
61 -5 61 -24 0 -61 -45 -61 -74 -1 -20 -1 -20 -11 -3 -8 14 -7 30 5 61 9 23
16 49 16 58 0 35 -60 29 -74 -8 -13 -33 -5 -100 14 -132 26 -43 90 -71 158
-72 56 0 82 9 121 44 l25 21 -23 -33 c-77 -111 -287 -176 -403 -124 -76 33
-123 120 -104 195 6 24 42 47 76 47 28 0 80 48 80 75 0 28 -34 55 -68 55 -36
0 -99 -39 -126 -79 -125 -182 68 -399 314 -353 299 55 439 344 304 627 -19 40
-52 62 -60 40z" />
    <path d="M6010 4035 c0 -9 9 -33 20 -55 11 -22 25 -62 31 -90 11 -52 31 -72
51 -52 8 8 8 23 0 54 l-11 42 69 -72 c39 -40 70 -75 70 -78 0 -2 11 -22 25
-44 30 -47 30 -50 8 -50 -24 0 -102 -42 -108 -58 -6 -17 53 -42 99 -42 25 0
39 7 50 22 9 12 17 20 19 17 81 -114 114 -139 179 -139 35 0 54 6 77 26 34 29
49 81 32 113 -13 24 -41 28 -41 7 0 -11 -8 -12 -42 -5 -51 12 -70 -1 -43 -31
22 -25 60 -26 74 -2 9 15 10 13 11 -10 0 -50 -70 -76 -118 -42 -12 8 -39 41
-60 72 -55 82 -55 80 -27 74 63 -12 111 41 86 94 -19 42 -95 24 -114 -26 -6
-17 -14 -30 -17 -30 -3 0 -19 22 -36 48 l-31 48 38 16 c24 10 43 27 49 43 14
36 13 135 -1 135 -12 0 -87 -55 -106 -79 -7 -8 -13 -25 -13 -38 0 -13 -3 -23
-7 -23 -4 0 -46 38 -94 85 -83 82 -119 103 -119 70z" />
    <path d="M4112 4033 c-12 -2 -27 -13 -32 -24 -14 -25 12 -76 45 -89 38 -14
135 6 135 29 0 11 -104 91 -116 90 -5 -1 -19 -4 -32 -6z" />
    <path d="M5240 3992 c-50 -45 -53 -50 -35 -59 11 -6 41 -14 68 -17 44 -7 50
-5 77 23 17 16 30 36 30 43 0 24 -23 46 -55 52 -26 6 -38 0 -85 -42z" />
    <path d="M3095 3986 c-8 -50 0 -100 19 -115 7 -6 32 -7 61 -3 42 6 51 11 53
30 3 18 -11 37 -55 78 -32 29 -61 54 -65 54 -4 0 -10 -20 -13 -44z" />
    <path d="M815 3943 c-5 -37 -9 -101 -9 -141 -1 -58 -4 -73 -18 -78 -22 -7 -37
-53 -27 -82 6 -16 16 -22 38 -22 37 0 53 -21 79 -107 l20 -62 -29 6 c-17 3
-35 0 -44 -7 -21 -17 -19 -59 3 -66 45 -14 47 -18 52 -123 5 -101 6 -103 38
-132 18 -16 39 -29 47 -29 12 0 12 -5 0 -32 -16 -40 -4 -68 30 -68 19 0 30
-10 45 -39 l19 -39 -29 15 c-36 17 -59 14 -74 -9 -16 -27 4 -52 45 -56 19 -2
39 -8 44 -14 7 -7 -2 -8 -28 -4 -45 8 -67 -5 -67 -40 0 -32 36 -67 62 -61 14
4 18 2 14 -9 -8 -22 11 -54 33 -54 24 0 51 31 51 58 0 34 15 26 28 -15 10 -33
9 -40 -9 -59 -24 -26 -17 -49 21 -66 28 -12 28 -13 13 -42 -24 -47 -3 -97 75
-178 62 -64 64 -69 49 -86 -21 -23 -22 -46 -2 -62 21 -17 64 -4 74 22 7 19 12
15 43 -39 52 -87 54 -99 23 -119 -14 -9 -25 -24 -25 -34 0 -26 50 -62 77 -57
17 3 27 -3 41 -27 24 -40 159 -133 172 -120 11 11 -26 123 -61 183 -17 28 -18
39 -8 68 9 28 8 38 -5 58 -18 28 -28 30 -55 14 -32 -21 -66 -2 -110 61 l-42
60 29 0 c35 0 55 20 50 52 -2 18 -9 23 -33 23 -16 0 -35 3 -41 8 -7 4 -20 42
-29 84 -20 94 -35 119 -83 141 -20 9 -38 17 -40 18 -1 1 2 13 9 26 16 36 -3
70 -35 62 -18 -4 -28 1 -45 24 -26 38 -27 46 -1 32 12 -6 35 -10 53 -8 26 2
33 8 35 30 3 22 -2 29 -23 34 -26 6 -26 7 -5 21 41 29 13 103 -40 103 -11 0
-16 9 -15 28 0 21 -5 28 -23 30 -30 4 -50 -13 -61 -52 l-8 -31 -13 45 c-9 32
-9 45 -1 48 6 2 18 10 26 19 20 19 3 52 -35 66 -27 10 -27 11 -9 31 31 33 24
84 -21 159 -46 75 -48 92 -19 116 43 35 -18 88 -66 57 l-23 -15 -7 62 c-9 87
-5 111 22 115 12 2 27 10 33 18 19 22 -7 74 -42 86 -23 8 -28 16 -28 44 0 19
-7 51 -16 72 -9 20 -24 62 -34 92 -26 80 -45 77 -55 -7z m134 -670 c1 -7 -5
-13 -12 -13 -10 0 -12 10 -9 32 4 28 6 30 13 13 4 -11 8 -26 8 -32z m61 5 c0
-4 -4 -8 -10 -8 -5 0 -10 4 -10 9 0 5 -3 18 -6 28 -5 16 -4 16 10 -1 9 -11 16
-23 16 -28z m167 -363 c-4 -8 -11 -15 -17 -15 -7 0 -7 6 0 21 13 23 26 19 17
-6z m33 -65 c0 -13 -11 -13 -30 0 -12 8 -11 10 8 10 12 0 22 -4 22 -10z m-140
-49 c0 -5 -7 -14 -15 -21 -12 -10 -15 -10 -15 2 0 8 3 18 7 21 9 10 23 9 23
-2z m274 -347 c11 -28 6 -39 -9 -20 -8 11 -15 23 -15 28 0 14 18 9 24 -8z
m-48 -36 l17 -33 -26 24 c-15 13 -24 28 -21 32 8 14 13 11 30 -23z" />
    <path d="M3496 3934 c-23 -22 -17 -58 10 -62 12 -2 29 4 38 14 23 22 17 58
-10 62 -12 2 -29 -4 -38 -14z" />
    <path d="M2040 3884 c-42 -18 -70 -42 -70 -61 0 -19 27 -16 59 8 18 13 50 23
90 26 51 5 61 9 61 24 0 16 -8 19 -52 19 -29 -1 -69 -8 -88 -16z" />
    <path d="M7334 3888 c-8 -12 22 -38 44 -38 8 0 30 -10 49 -21 25 -16 38 -18
45 -11 15 15 -5 38 -53 63 -43 22 -74 24 -85 7z" />
    <path d="M3528 3804 c-41 -21 -48 -29 -48 -54 0 -37 11 -43 60 -35 69 12 115
81 71 105 -26 13 -29 13 -83 -16z" />
    <path d="M1927 3744 c-13 -14 -7 -134 8 -164 27 -52 87 -67 120 -30 40 44 -23
112 -64 71 -26 -26 -31 -18 -31 44 0 50 -18 94 -33 79z" />
    <path d="M2279 3683 c-24 -6 -43 -93 -21 -93 12 0 72 64 72 77 0 9 -27 26 -33
22 -1 -1 -9 -3 -18 -6z" />
    <path d="M3135 3683 c-37 -4 -45 -10 -80 -63 -43 -63 -78 -90 -119 -90 -32 0
-66 32 -66 63 1 20 2 20 11 5 12 -21 59 -24 77 -6 19 19 14 55 -10 72 -31 22
-60 20 -92 -5 -21 -16 -26 -29 -26 -64 0 -63 31 -96 96 -102 67 -7 102 12 155
82 34 46 44 53 53 41 21 -29 58 -35 105 -17 24 9 46 21 48 27 5 14 -52 51 -87
57 -14 2 -43 2 -65 0z" />
    <path d="M3383 3683 c-23 -8 -13 -33 30 -77 72 -72 195 -99 251 -55 28 22 34
60 12 78 -8 7 -46 11 -98 9 -70 -1 -91 2 -119 18 -44 26 -61 32 -76 27z" />
    <path d="M3858 3639 c-24 -28 -53 -61 -65 -72 -30 -27 -29 -34 8 -42 60 -13
121 4 160 45 67 70 58 120 -20 120 -36 0 -44 -5 -83 -51z" />
    <path d="M5458 3664 c-10 -22 -9 -32 7 -62 30 -54 63 -73 139 -79 82 -7 93 8
44 59 -18 19 -47 51 -64 71 -27 32 -37 37 -73 37 -35 0 -43 -4 -53 -26z" />
    <path d="M6015 3671 c-26 -29 -71 -39 -152 -34 -56 4 -72 2 -86 -12 -22 -21
-21 -37 1 -65 28 -35 112 -39 180 -10 54 23 136 102 129 123 -6 21 -52 19 -72
-2z" />
    <path d="M7117 3677 c-6 -17 78 -104 87 -89 3 5 2 29 -2 53 -7 42 -9 44 -43
47 -25 2 -38 -2 -42 -11z" />
    <path d="M7507 3683 c-2 -5 -7 -25 -11 -45 l-7 -38 -28 21 c-39 29 -71 13 -71
-34 0 -100 127 -63 144 41 3 24 4 47 1 53 -7 11 -22 12 -28 2z" />
    <path d="M3056 3132 c-3 -5 -10 -63 -16 -128 -14 -168 -21 -205 -36 -211 -8
-3 -14 -11 -14 -19 0 -10 15 -14 55 -14 56 0 69 12 44 37 -8 8 -9 36 -4 89 l7
78 52 -99 c28 -55 57 -100 64 -100 8 0 31 40 52 90 41 97 42 97 55 -6 4 -34 2
-49 -10 -59 -25 -20 -7 -30 56 -30 44 0 59 4 59 14 0 8 -6 16 -14 19 -15 6
-22 43 -36 212 -10 119 -20 149 -40 129 -6 -6 -35 -66 -64 -133 l-54 -123 -63
128 c-61 122 -80 147 -93 126z" />
    <path d="M3537 3133 c-3 -4 -10 -66 -16 -138 -15 -165 -20 -195 -37 -202 -8
-3 -14 -11 -14 -19 0 -10 15 -14 55 -14 56 0 64 6 43 39 -8 13 -8 39 -1 92 l9
74 43 -90 c48 -102 58 -116 75 -109 8 3 29 43 47 89 19 47 37 85 40 85 10 0
18 -134 8 -144 -24 -25 -8 -36 51 -36 45 0 60 4 60 14 0 8 -6 16 -14 19 -9 4
-17 41 -25 124 -27 270 -32 274 -111 91 l-55 -128 -65 127 c-61 119 -81 146
-93 126z" />
    <path d="M3961 3123 c-14 -10 -12 -13 11 -23 25 -12 118 -138 118 -160 0 -19
-94 -138 -118 -149 -35 -17 -17 -31 39 -31 41 0 49 3 49 18 0 10 15 40 34 66
l34 48 31 -45 c17 -25 31 -55 31 -66 0 -19 6 -21 59 -21 67 0 84 12 46 33 -14
7 -48 46 -75 86 l-48 74 51 68 c28 38 60 72 69 75 21 6 24 30 6 36 -7 3 -30 3
-50 0 -27 -3 -38 -9 -38 -21 0 -19 -57 -101 -70 -101 -12 0 -60 78 -60 99 0
16 -9 20 -51 23 -30 1 -59 -2 -68 -9z" />
    <path d="M4377 3128 c-8 -5 -2 -16 19 -33 17 -13 50 -54 74 -90 l43 -66 -33
-47 c-46 -65 -81 -102 -98 -102 -7 0 -12 -6 -10 -12 3 -8 26 -14 56 -16 47 -3
52 -1 52 18 0 17 56 110 66 110 7 0 64 -100 64 -113 0 -14 11 -17 59 -17 67 0
84 12 47 32 -14 7 -48 46 -75 86 l-51 73 55 75 c30 41 62 74 70 74 8 0 15 7
15 16 0 12 -10 14 -52 12 -37 -2 -52 -7 -50 -16 3 -14 -57 -102 -69 -102 -14
0 -59 74 -59 96 0 20 -6 23 -56 26 -31 1 -61 0 -67 -4z" />
    <path d="M5882 3133 c-25 -3 -32 -8 -28 -20 4 -9 -9 -36 -30 -65 l-37 -49 -28
43 c-16 24 -29 53 -29 66 0 21 -4 22 -65 22 -70 0 -79 -8 -40 -34 14 -9 46
-48 72 -86 l46 -70 -29 -42 c-36 -52 -85 -104 -103 -110 -30 -9 2 -28 50 -28
43 0 49 3 49 21 0 16 56 109 66 109 7 0 64 -100 64 -113 0 -14 11 -17 59 -17
67 0 86 14 45 32 -14 7 -49 45 -76 86 l-49 73 56 75 c30 41 62 74 71 74 23 0
12 35 -11 36 -11 1 -35 -1 -53 -3z" />
    <path d="M6429 3132 c-21 -2 -26 -8 -26 -30 0 -15 -16 -67 -36 -117 -32 -83
-36 -88 -45 -65 -5 14 -22 56 -37 93 -15 38 -28 78 -29 90 -1 20 -8 22 -58 25
-60 3 -72 -6 -38 -29 11 -8 46 -80 83 -174 38 -98 69 -161 78 -163 11 -2 32
41 78 158 38 98 70 166 82 173 40 25 11 47 -52 39z" />
    <path d="M4790 3116 c0 -8 5 -18 10 -21 6 -4 10 -65 10 -150 0 -85 -4 -146
-10 -150 -5 -3 -10 -13 -10 -21 0 -10 14 -14 54 -14 60 0 75 10 51 33 -22 23
-22 289 0 307 27 22 16 30 -45 30 -46 0 -60 -3 -60 -14z" />
    <path d="M4960 3116 c0 -7 7 -19 16 -27 13 -11 15 -35 12 -153 -2 -100 -7
-141 -15 -144 -7 -2 -13 -10 -13 -18 0 -10 15 -14 60 -14 62 0 73 9 45 36 -12
12 -15 44 -15 149 0 105 3 137 15 149 28 27 17 36 -45 36 -44 0 -60 -4 -60
-14z" />
    <path d="M5130 3116 c0 -8 7 -16 15 -20 12 -4 15 -30 15 -145 0 -111 -3 -143
-15 -155 -28 -27 -17 -36 45 -36 46 0 60 3 60 14 0 8 -4 18 -10 21 -6 4 -10
65 -10 150 0 85 4 146 10 150 6 3 10 13 10 21 0 11 -14 14 -60 14 -45 0 -60
-4 -60 -14z" />
    <path d="M5430 3116 c0 -8 5 -18 10 -21 6 -4 10 -65 10 -150 0 -85 -4 -146
-10 -150 -5 -3 -10 -13 -10 -21 0 -10 14 -14 54 -14 58 0 75 10 51 30 -12 10
-15 41 -15 155 0 114 3 145 15 155 24 20 7 30 -51 30 -40 0 -54 -4 -54 -14z" />
    <path d="M5307 2953 c-12 -11 -8 -40 8 -53 28 -24 72 9 59 45 -6 15 -55 21
-67 8z" />
    <path d="M6020 2931 c0 -20 6 -32 19 -36 31 -10 52 5 49 34 -2 21 -9 27 -35
29 -31 3 -33 1 -33 -27z" />
    <path d="M6741 2704 c-26 -71 -4 -69 -686 -72 -335 -1 -616 -2 -623 -2 -8 0
-12 -9 -10 -22 l3 -23 632 -5 631 -5 25 -23 c14 -13 28 -35 31 -48 4 -13 11
-24 16 -24 19 0 50 40 50 64 0 20 6 24 39 30 21 3 44 13 52 22 11 14 10 18 -6
30 -10 8 -27 14 -36 14 -32 0 -49 12 -49 35 0 20 -17 42 -46 58 -6 3 -16 -9
-23 -29z" />
    <path d="M2697 2713 c-8 -10 -17 -29 -19 -43 -2 -20 -10 -26 -41 -31 -21 -3
-43 -11 -49 -17 -17 -17 9 -41 53 -48 33 -6 39 -10 39 -30 0 -24 31 -64 50
-64 5 0 16 15 24 34 8 19 25 40 38 48 18 10 153 14 648 18 l625 5 3 22 3 22
-625 3 c-616 3 -625 3 -653 24 -15 11 -34 33 -41 47 -15 31 -32 34 -55 10z" />
    <path d="M4708 2666 c-8 -9 -26 -12 -49 -9 -29 4 -39 1 -55 -19 -16 -20 -24
-23 -49 -16 -33 8 -90 -4 -120 -26 -18 -13 -21 -11 -37 15 -31 50 -98 36 -98
-22 l0 -27 -42 15 c-69 24 -142 0 -166 -53 -21 -44 -15 -83 17 -115 54 -53
151 -31 151 35 0 54 -72 76 -96 29 -11 -23 -24 -21 -24 3 0 24 31 44 70 44 36
0 47 -7 124 -84 72 -73 92 -87 141 -101 31 -10 70 -15 86 -13 18 3 29 0 29 -7
0 -26 39 -48 74 -42 24 4 39 1 47 -9 15 -18 40 -18 65 0 11 8 30 12 45 9 32
-6 65 10 73 35 5 14 14 17 40 14 70 -8 130 23 221 114 76 76 88 84 123 84 44
0 62 -14 62 -50 l0 -25 -13 25 c-26 52 -97 32 -97 -27 0 -60 103 -88 147 -40
86 94 -17 218 -145 174 l-42 -15 0 27 c0 34 -17 51 -51 51 -30 0 -59 -23 -59
-45 0 -11 -8 -10 -34 6 -37 22 -84 28 -128 16 -21 -6 -28 -4 -28 7 0 21 -37
39 -71 34 -17 -3 -34 1 -40 9 -15 17 -55 17 -71 -1z m-24 -125 l30 -31 -37 0
c-31 0 -37 4 -37 21 0 11 -5 29 -11 40 -9 18 -8 19 8 11 10 -6 31 -24 47 -41z
m170 22 c-7 -16 -14 -34 -14 -40 0 -8 -13 -13 -32 -13 l-31 0 19 23 c23 27 57
56 66 57 4 0 0 -12 -8 -27z m-286 -15 c7 -7 12 -19 12 -27 0 -11 -4 -10 -20 4
-30 27 -70 7 -70 -35 0 -42 52 -68 100 -51 18 6 39 7 47 2 26 -14 -32 -51 -82
-51 -86 0 -137 90 -83 147 24 25 76 31 96 11z m447 -13 c59 -58 6 -145 -88
-145 -43 0 -98 38 -74 52 9 5 26 4 41 -3 28 -13 68 -6 90 17 43 42 -10 109
-54 69 -17 -16 -20 -16 -20 -2 0 40 70 48 105 12z" />
    <path d="M7116 1962 c-7 -12 30 -189 59 -280 14 -42 25 -96 25 -119 0 -44 -17
-93 -32 -93 -16 0 -46 83 -68 190 -12 58 -28 111 -35 119 -17 18 -35 6 -35
-25 0 -20 -5 -24 -32 -24 -64 0 -132 -63 -164 -151 -22 -61 -22 -201 1 -256
22 -56 76 -103 117 -103 66 0 130 69 144 157 6 40 7 40 35 30 40 -15 73 5 102
62 22 45 23 46 66 43 40 -3 47 0 85 40 52 54 66 102 65 209 -2 116 -9 143 -38
147 l-23 4 7 -89 7 -88 -42 48 c-23 26 -73 66 -110 88 -49 29 -71 49 -79 70
-10 28 -43 41 -55 21z m204 -278 c25 -50 25 -75 2 -104 -14 -17 -25 -21 -43
-17 -25 7 -24 3 -75 216 l-13 54 55 -54 c30 -30 63 -72 74 -95z m-300 -20 c13
-13 30 -133 30 -214 0 -107 -51 -186 -97 -148 -48 39 -69 186 -41 280 21 71
77 113 108 82z" />
    <path d="M2604 1934 c-57 -37 -87 -88 -92 -157 -4 -51 0 -67 31 -131 25 -50
56 -91 102 -135 36 -34 65 -64 65 -66 0 -6 -168 -74 -223 -90 -71 -21 -182
-22 -228 -2 -84 35 -147 125 -135 193 13 67 85 124 158 124 72 0 162 -69 195
-151 21 -53 49 -50 47 4 -2 75 -100 184 -193 215 -101 35 -209 -8 -255 -100
-15 -30 -26 -69 -26 -92 0 -90 86 -203 188 -249 32 -14 75 -22 133 -25 103 -5
203 17 343 77 l94 40 42 -20 c61 -30 185 -59 249 -59 154 0 301 88 301 179 0
40 -35 88 -81 111 -97 50 -206 34 -415 -61 l-133 -61 -29 20 c-48 35 -113 111
-134 158 -53 120 6 224 127 224 110 -1 194 -70 244 -203 15 -38 51 -38 51 1 0
76 -103 207 -201 256 -74 37 -168 37 -225 0z m714 -400 c31 -20 29 -64 -5 -97
-77 -73 -230 -94 -365 -48 -38 12 -68 26 -68 30 0 17 227 114 315 135 31 7 98
-3 123 -20z" />
    <path d="M6411 1721 c-15 -27 -39 -178 -46 -293 l-7 -96 -35 -7 c-50 -9 -115
-73 -147 -145 -23 -50 -27 -75 -27 -138 1 -197 -102 -315 -157 -181 l-22 51
24 56 c96 233 147 491 114 587 -11 35 -17 40 -46 43 -71 7 -141 -112 -176
-298 -18 -91 -21 -302 -6 -365 10 -42 5 -75 -11 -75 -5 0 -9 22 -9 49 0 61
-16 109 -48 144 -34 35 -67 35 -102 -3 -18 -19 -34 -28 -44 -24 -42 16 -135
-146 -143 -250 -7 -76 6 -115 49 -151 77 -65 214 5 258 132 8 21 25 39 49 51
l38 20 17 -29 c21 -36 64 -59 110 -59 45 0 95 43 121 102 11 24 20 44 21 46 1
2 19 -6 40 -17 46 -25 84 -27 124 -6 32 17 74 67 85 103 5 18 11 21 28 16 97
-31 158 36 165 179 4 78 4 79 -19 75 -22 -3 -25 -10 -31 -67 -8 -76 -23 -117
-46 -126 -60 -23 -100 233 -81 512 6 85 8 161 5 169 -8 20 -33 17 -45 -5z
m-354 -278 c-5 -104 -37 -242 -82 -353 l-26 -65 5 135 c5 139 25 245 65 335
33 74 44 58 38 -52z m313 -214 c0 -23 7 -72 17 -110 13 -57 14 -76 4 -108 -14
-48 -56 -101 -80 -101 -37 0 -80 79 -81 151 -1 92 66 209 119 209 18 0 21 -6
21 -41z m-582 -234 c15 -32 16 -125 2 -125 -15 0 -50 79 -50 111 0 46 30 54
48 14z m-70 -121 c11 -23 33 -49 47 -58 l26 -17 -28 -50 c-33 -61 -66 -89
-104 -89 -40 0 -52 28 -47 114 3 55 11 86 37 141 l34 70 7 -35 c3 -19 16 -53
28 -76z" />
    <path d="M3030 1261 c-71 -23 -93 -35 -142 -79 -49 -45 -68 -80 -68 -130 0
-102 128 -153 260 -103 37 14 66 18 103 14 51 -5 53 -4 147 62 107 76 120 83
120 62 0 -21 -121 -132 -208 -191 -39 -27 -72 -56 -72 -64 0 -16 28 -41 47
-42 7 0 68 37 135 81 139 92 230 139 271 139 51 0 33 -34 -63 -115 -90 -76
-120 -115 -120 -155 0 -80 89 -97 202 -39 l38 19 0 -24 c0 -56 87 -115 150
-102 22 4 28 2 24 -9 -3 -8 -49 -28 -102 -46 -139 -46 -220 -87 -274 -140
-136 -135 -40 -268 131 -183 62 31 173 138 249 239 50 65 58 71 127 96 143 52
275 139 262 173 -10 25 -35 19 -81 -18 -64 -53 -227 -126 -184 -83 47 48 213
262 213 275 0 11 -8 17 -25 17 -14 0 -36 10 -49 22 -90 84 -312 26 -400 -103
-37 -54 -201 -139 -201 -105 0 12 46 58 105 107 88 71 112 158 59 211 -24 24
-30 25 -94 20 -53 -4 -68 -3 -64 7 8 22 -15 66 -41 78 -39 18 -90 -4 -182 -77
-92 -73 -141 -90 -81 -27 46 48 68 92 68 137 0 59 -50 92 -100 65 -14 -7 -19
-5 -23 10 -7 26 -60 26 -137 1z m88 -83 c-14 -29 -22 -63 -23 -103 l-2 -60
-49 -17 c-27 -9 -59 -17 -71 -18 -30 0 -71 19 -78 38 -17 44 82 143 180 182
68 26 68 26 43 -22z m122 13 c0 -21 -21 -64 -47 -96 -30 -37 -58 -47 -49 -17
2 9 8 28 12 42 11 40 44 80 65 80 10 0 19 -4 19 -9z m845 -301 c17 -19 15 -22
-66 -110 -88 -96 -141 -130 -204 -130 -35 0 -65 21 -65 46 0 55 107 171 183
197 63 23 130 21 152 -3z m-333 -437 c-39 -54 -131 -149 -168 -175 -52 -35
-76 -41 -98 -25 -17 13 -17 15 -2 44 26 51 118 119 215 159 72 30 76 30 53 -3z" />
    <path d="M4980 796 c-85 -176 -120 -226 -156 -226 -27 0 -13 48 46 170 34 68
59 129 56 137 -7 17 -31 17 -46 -2 -11 -13 -15 -12 -37 5 -36 28 -128 27 -188
-1 -149 -70 -252 -267 -185 -352 47 -59 131 -56 215 8 27 21 45 30 45 21 0
-43 80 -60 139 -28 l33 18 28 -28 c23 -23 37 -28 75 -28 25 0 62 7 83 15 49
21 125 96 169 168 28 47 33 60 23 72 -20 24 -34 17 -62 -33 -15 -26 -36 -57
-45 -69 -18 -22 -18 -22 -18 40 0 43 -9 86 -29 140 -24 66 -27 82 -17 104 13
28 1 53 -25 53 -9 0 -51 -75 -104 -184z m-186 44 c15 -5 26 -17 26 -28 0 -30
-122 -204 -168 -239 -84 -64 -140 -30 -108 63 30 87 98 164 176 198 42 18 42
18 74 6z m275 -130 c1 -118 -58 -195 -110 -143 -19 19 -19 20 1 59 11 21 36
75 56 119 33 72 37 77 44 55 5 -14 8 -54 9 -90z" />
  </g>
</svg>